0
SECTION
2
HEADER
9
$EXTMIN
10
      -105.0000
20
      -148.5000
9
$EXTMAX
10
       105.0000
20
       148.5000
0
ENDSEC
0
SECTION
2
TABLES
0
TABLE
2
LAYER
70
0
0
LAYER
2
LINE001
70
0
62
7
 6
CONTINUOUS
0
LAYER
2
PLINE001
70
0
62
7
 6
CONTINUOUS
0
LAYER
2
TEXT001
70
0
62
7
 6
CONTINUOUS
0
LAYER
2
CIRCLE001
70
0
62
7
 6
CONTINUOUS
0
LAYER
2
LINE002
70
0
62
1
 6
CONTINUOUS
0
LAYER
2
PLINE002
70
0
62
1
 6
CONTINUOUS
0
LAYER
2
TEXT002
70
0
62
1
 6
CONTINUOUS
0
LAYER
2
CIRCLE002
70
0
62
1
 6
CONTINUOUS
0
LAYER
2
LINE003
70
0
62
3
 6
CONTINUOUS
0
LAYER
2
PLINE003
70
0
62
3
 6
CONTINUOUS
0
LAYER
2
TEXT003
70
0
62
3
 6
CONTINUOUS
0
LAYER
2
CIRCLE003
70
0
62
3
 6
CONTINUOUS
0
LAYER
2
LINE004
70
0
62
5
 6
CONTINUOUS
0
LAYER
2
PLINE004
70
0
62
5
 6
CONTINUOUS
0
LAYER
2
TEXT004
70
0
62
5
 6
CONTINUOUS
0
LAYER
2
CIRCLE004
70
0
62
5
 6
CONTINUOUS
0
LAYER
2
LINE005
70
0
62
2
 6
CONTINUOUS
0
LAYER
2
PLINE005
70
0
62
2
 6
CONTINUOUS
0
LAYER
2
TEXT005
70
0
62
2
 6
CONTINUOUS
0
LAYER
2
CIRCLE005
70
0
62
2
 6
CONTINUOUS
0
LAYER
2
LINE006
70
0
62
4
 6
CONTINUOUS
0
LAYER
2
PLINE006
70
0
62
4
 6
CONTINUOUS
0
LAYER
2
TEXT006
70
0
62
4
 6
CONTINUOUS
0
LAYER
2
CIRCLE006
70
0
62
4
 6
CONTINUOUS
0
LAYER
2
LINE007
70
0
62
6
 6
CONTINUOUS
0
LAYER
2
PLINE007
70
0
62
6
 6
CONTINUOUS
0
LAYER
2
TEXT007
70
0
62
6
 6
CONTINUOUS
0
LAYER
2
CIRCLE007
70
0
62
6
 6
CONTINUOUS
0
LAYER
2
LINE008
70
0
62
254
 6
CONTINUOUS
0
LAYER
2
PLINE008
70
0
62
254
 6
CONTINUOUS
0
LAYER
2
TEXT008
70
0
62
254
 6
CONTINUOUS
0
LAYER
2
CIRCLE008
70
0
62
254
 6
CONTINUOUS
0
ENDTAB
0
ENDSEC
0
SECTION
2
ENTITIES
0
LINE
8
LINE001
38
0.0
10
-50.0000
20
.0000
11
50.0000
21
.0000
0
LINE
8
LINE001
38
0.0
10
.0000
20
-50.0000
11
.0000
21
50.0000
0
POLYLINE
8
PLINE001
38
0.0
66
1
0
VERTEX
8
PLINE001
38
0.0
10
.6283
20
39.9951
0
VERTEX
8
PLINE001
38
0.0
10
1.2564
20
39.9803
0
VERTEX
8
PLINE001
38
0.0
10
1.8843
20
39.9556
0
VERTEX
8
PLINE001
38
0.0
10
2.5116
20
39.9211
0
VERTEX
8
PLINE001
38
0.0
10
3.1384
20
39.8767
0
VERTEX
8
PLINE001
38
0.0
10
3.7643
20
39.8225
0
VERTEX
8
PLINE001
38
0.0
10
4.3894
20
39.7584
0
VERTEX
8
PLINE001
38
0.0
10
5.0133
20
39.6846
0
VERTEX
8
PLINE001
38
0.0
10
5.6360
20
39.6009
0
VERTEX
8
PLINE001
38
0.0
10
6.2574
20
39.5075
0
VERTEX
8
PLINE001
38
0.0
10
6.8772
20
39.4044
0
VERTEX
8
PLINE001
38
0.0
10
7.4953
20
39.2915
0
VERTEX
8
PLINE001
38
0.0
10
8.1115
20
39.1689
0
VERTEX
8
PLINE001
38
0.0
10
8.7257
20
39.0367
0
VERTEX
8
PLINE001
38
0.0
10
9.3378
20
38.8948
0
VERTEX
8
PLINE001
38
0.0
10
9.9476
20
38.7433
0
VERTEX
8
PLINE001
38
0.0
10
10.5549
20
38.5823
0
VERTEX
8
PLINE001
38
0.0
10
11.1596
20
38.4117
0
VERTEX
8
PLINE001
38
0.0
10
11.7616
20
38.2317
0
VERTEX
8
PLINE001
38
0.0
10
12.3607
20
38.0423
0
VERTEX
8
PLINE001
38
0.0
10
12.9567
20
37.8434
0
VERTEX
8
PLINE001
38
0.0
10
13.5495
20
37.6352
0
VERTEX
8
PLINE001
38
0.0
10
14.1390
20
37.4178
0
VERTEX
8
PLINE001
38
0.0
10
14.7250
20
37.1911
0
VERTEX
8
PLINE001
38
0.0
10
15.3073
20
36.9552
0
VERTEX
8
PLINE001
38
0.0
10
15.8859
20
36.7102
0
VERTEX
8
PLINE001
38
0.0
10
16.4606
20
36.4561
0
VERTEX
8
PLINE001
38
0.0
10
17.0312
20
36.1931
0
VERTEX
8
PLINE001
38
0.0
10
17.5976
20
35.9211
0
VERTEX
8
PLINE001
38
0.0
10
18.1596
20
35.6403
0
VERTEX
8
PLINE001
38
0.0
10
18.7172
20
35.3506
0
VERTEX
8
PLINE001
38
0.0
10
19.2701
20
35.0523
0
VERTEX
8
PLINE001
38
0.0
10
19.8183
20
34.7453
0
VERTEX
8
PLINE001
38
0.0
10
20.3617
20
34.4297
0
VERTEX
8
PLINE001
38
0.0
10
20.8999
20
34.1056
0
VERTEX
8
PLINE001
38
0.0
10
21.4331
20
33.7731
0
VERTEX
8
PLINE001
38
0.0
10
21.9609
20
33.4323
0
VERTEX
8
PLINE001
38
0.0
10
22.4833
20
33.0832
0
VERTEX
8
PLINE001
38
0.0
10
23.0002
20
32.7260
0
VERTEX
8
PLINE001
38
0.0
10
23.5114
20
32.3607
0
VERTEX
8
PLINE001
38
0.0
10
24.0168
20
31.9874
0
VERTEX
8
PLINE001
38
0.0
10
24.5163
20
31.6062
0
VERTEX
8
PLINE001
38
0.0
10
25.0097
20
31.2172
0
VERTEX
8
PLINE001
38
0.0
10
25.4970
20
30.8205
0
VERTEX
8
PLINE001
38
0.0
10
25.9779
20
30.4162
0
VERTEX
8
PLINE001
38
0.0
10
26.4525
20
30.0044
0
VERTEX
8
PLINE001
38
0.0
10
26.9205
20
29.5852
0
VERTEX
8
PLINE001
38
0.0
10
27.3819
20
29.1587
0
VERTEX
8
PLINE001
38
0.0
10
27.8365
20
28.7251
0
VERTEX
8
PLINE001
38
0.0
10
28.2843
20
28.2843
0
VERTEX
8
PLINE001
38
0.0
10
28.7251
20
27.8365
0
VERTEX
8
PLINE001
38
0.0
10
29.1587
20
27.3819
0
VERTEX
8
PLINE001
38
0.0
10
29.5852
20
26.9205
0
VERTEX
8
PLINE001
38
0.0
10
30.0044
20
26.4525
0
VERTEX
8
PLINE001
38
0.0
10
30.4162
20
25.9779
0
VERTEX
8
PLINE001
38
0.0
10
30.8205
20
25.4970
0
VERTEX
8
PLINE001
38
0.0
10
31.2172
20
25.0097
0
VERTEX
8
PLINE001
38
0.0
10
31.6062
20
24.5163
0
VERTEX
8
PLINE001
38
0.0
10
31.9874
20
24.0168
0
VERTEX
8
PLINE001
38
0.0
10
32.3607
20
23.5114
0
VERTEX
8
PLINE001
38
0.0
10
32.7260
20
23.0002
0
VERTEX
8
PLINE001
38
0.0
10
33.0832
20
22.4833
0
VERTEX
8
PLINE001
38
0.0
10
33.4323
20
21.9609
0
VERTEX
8
PLINE001
38
0.0
10
33.7731
20
21.4331
0
VERTEX
8
PLINE001
38
0.0
10
34.1056
20
20.8999
0
VERTEX
8
PLINE001
38
0.0
10
34.4297
20
20.3617
0
VERTEX
8
PLINE001
38
0.0
10
34.7453
20
19.8183
0
VERTEX
8
PLINE001
38
0.0
10
35.0523
20
19.2701
0
VERTEX
8
PLINE001
38
0.0
10
35.3506
20
18.7172
0
VERTEX
8
PLINE001
38
0.0
10
35.6403
20
18.1596
0
VERTEX
8
PLINE001
38
0.0
10
35.9211
20
17.5976
0
VERTEX
8
PLINE001
38
0.0
10
36.1931
20
17.0312
0
VERTEX
8
PLINE001
38
0.0
10
36.4561
20
16.4606
0
VERTEX
8
PLINE001
38
0.0
10
36.7102
20
15.8859
0
VERTEX
8
PLINE001
38
0.0
10
36.9552
20
15.3073
0
VERTEX
8
PLINE001
38
0.0
10
37.1911
20
14.7250
0
VERTEX
8
PLINE001
38
0.0
10
37.4178
20
14.1390
0
VERTEX
8
PLINE001
38
0.0
10
37.6352
20
13.5495
0
VERTEX
8
PLINE001
38
0.0
10
37.8434
20
12.9567
0
VERTEX
8
PLINE001
38
0.0
10
38.0423
20
12.3607
0
VERTEX
8
PLINE001
38
0.0
10
38.2317
20
11.7616
0
VERTEX
8
PLINE001
38
0.0
10
38.4117
20
11.1596
0
VERTEX
8
PLINE001
38
0.0
10
38.5823
20
10.5549
0
VERTEX
8
PLINE001
38
0.0
10
38.7433
20
9.9476
0
VERTEX
8
PLINE001
38
0.0
10
38.8948
20
9.3378
0
VERTEX
8
PLINE001
38
0.0
10
39.0367
20
8.7257
0
VERTEX
8
PLINE001
38
0.0
10
39.1689
20
8.1115
0
VERTEX
8
PLINE001
38
0.0
10
39.2915
20
7.4953
0
VERTEX
8
PLINE001
38
0.0
10
39.4044
20
6.8772
0
VERTEX
8
PLINE001
38
0.0
10
39.5075
20
6.2574
0
VERTEX
8
PLINE001
38
0.0
10
39.6009
20
5.6360
0
VERTEX
8
PLINE001
38
0.0
10
39.6846
20
5.0133
0
VERTEX
8
PLINE001
38
0.0
10
39.7584
20
4.3894
0
VERTEX
8
PLINE001
38
0.0
10
39.8225
20
3.7643
0
VERTEX
8
PLINE001
38
0.0
10
39.8767
20
3.1384
0
VERTEX
8
PLINE001
38
0.0
10
39.9211
20
2.5116
0
VERTEX
8
PLINE001
38
0.0
10
39.9556
20
1.8843
0
VERTEX
8
PLINE001
38
0.0
10
39.9803
20
1.2564
0
VERTEX
8
PLINE001
38
0.0
10
39.9951
20
.6283
0
VERTEX
8
PLINE001
38
0.0
10
40.0000
20
.0000
0
VERTEX
8
PLINE001
38
0.0
10
39.9951
20
-.6283
0
VERTEX
8
PLINE001
38
0.0
10
39.9803
20
-1.2564
0
VERTEX
8
PLINE001
38
0.0
10
39.9556
20
-1.8843
0
VERTEX
8
PLINE001
38
0.0
10
39.9211
20
-2.5116
0
VERTEX
8
PLINE001
38
0.0
10
39.8767
20
-3.1384
0
VERTEX
8
PLINE001
38
0.0
10
39.8225
20
-3.7643
0
VERTEX
8
PLINE001
38
0.0
10
39.7584
20
-4.3894
0
VERTEX
8
PLINE001
38
0.0
10
39.6846
20
-5.0133
0
VERTEX
8
PLINE001
38
0.0
10
39.6009
20
-5.6360
0
VERTEX
8
PLINE001
38
0.0
10
39.5075
20
-6.2574
0
VERTEX
8
PLINE001
38
0.0
10
39.4044
20
-6.8772
0
VERTEX
8
PLINE001
38
0.0
10
39.2915
20
-7.4953
0
VERTEX
8
PLINE001
38
0.0
10
39.1689
20
-8.1115
0
VERTEX
8
PLINE001
38
0.0
10
39.0367
20
-8.7257
0
VERTEX
8
PLINE001
38
0.0
10
38.8948
20
-9.3378
0
VERTEX
8
PLINE001
38
0.0
10
38.7433
20
-9.9476
0
VERTEX
8
PLINE001
38
0.0
10
38.5823
20
-10.5549
0
VERTEX
8
PLINE001
38
0.0
10
38.4117
20
-11.1596
0
VERTEX
8
PLINE001
38
0.0
10
38.2317
20
-11.7616
0
VERTEX
8
PLINE001
38
0.0
10
38.0423
20
-12.3607
0
VERTEX
8
PLINE001
38
0.0
10
37.8434
20
-12.9567
0
VERTEX
8
PLINE001
38
0.0
10
37.6352
20
-13.5495
0
VERTEX
8
PLINE001
38
0.0
10
37.4178
20
-14.1390
0
VERTEX
8
PLINE001
38
0.0
10
37.1911
20
-14.7250
0
VERTEX
8
PLINE001
38
0.0
10
36.9552
20
-15.3073
0
VERTEX
8
PLINE001
38
0.0
10
36.7102
20
-15.8859
0
VERTEX
8
PLINE001
38
0.0
10
36.4561
20
-16.4606
0
VERTEX
8
PLINE001
38
0.0
10
36.1931
20
-17.0312
0
VERTEX
8
PLINE001
38
0.0
10
35.9211
20
-17.5976
0
VERTEX
8
PLINE001
38
0.0
10
35.6403
20
-18.1596
0
VERTEX
8
PLINE001
38
0.0
10
35.3506
20
-18.7172
0
VERTEX
8
PLINE001
38
0.0
10
35.0523
20
-19.2701
0
VERTEX
8
PLINE001
38
0.0
10
34.7453
20
-19.8183
0
VERTEX
8
PLINE001
38
0.0
10
34.4297
20
-20.3617
0
VERTEX
8
PLINE001
38
0.0
10
34.1056
20
-20.8999
0
VERTEX
8
PLINE001
38
0.0
10
33.7731
20
-21.4331
0
VERTEX
8
PLINE001
38
0.0
10
33.4323
20
-21.9609
0
VERTEX
8
PLINE001
38
0.0
10
33.0832
20
-22.4833
0
VERTEX
8
PLINE001
38
0.0
10
32.7260
20
-23.0002
0
VERTEX
8
PLINE001
38
0.0
10
32.3607
20
-23.5114
0
VERTEX
8
PLINE001
38
0.0
10
31.9874
20
-24.0168
0
VERTEX
8
PLINE001
38
0.0
10
31.6062
20
-24.5163
0
VERTEX
8
PLINE001
38
0.0
10
31.2172
20
-25.0097
0
VERTEX
8
PLINE001
38
0.0
10
30.8205
20
-25.4970
0
VERTEX
8
PLINE001
38
0.0
10
30.4162
20
-25.9779
0
VERTEX
8
PLINE001
38
0.0
10
30.0044
20
-26.4525
0
VERTEX
8
PLINE001
38
0.0
10
29.5852
20
-26.9205
0
VERTEX
8
PLINE001
38
0.0
10
29.1587
20
-27.3819
0
VERTEX
8
PLINE001
38
0.0
10
28.7251
20
-27.8365
0
VERTEX
8
PLINE001
38
0.0
10
28.2843
20
-28.2843
0
VERTEX
8
PLINE001
38
0.0
10
27.8365
20
-28.7251
0
VERTEX
8
PLINE001
38
0.0
10
27.3819
20
-29.1587
0
VERTEX
8
PLINE001
38
0.0
10
26.9205
20
-29.5852
0
VERTEX
8
PLINE001
38
0.0
10
26.4525
20
-30.0044
0
VERTEX
8
PLINE001
38
0.0
10
25.9779
20
-30.4162
0
VERTEX
8
PLINE001
38
0.0
10
25.4970
20
-30.8205
0
VERTEX
8
PLINE001
38
0.0
10
25.0097
20
-31.2172
0
VERTEX
8
PLINE001
38
0.0
10
24.5163
20
-31.6062
0
VERTEX
8
PLINE001
38
0.0
10
24.0168
20
-31.9874
0
VERTEX
8
PLINE001
38
0.0
10
23.5114
20
-32.3607
0
VERTEX
8
PLINE001
38
0.0
10
23.0002
20
-32.7260
0
VERTEX
8
PLINE001
38
0.0
10
22.4833
20
-33.0832
0
VERTEX
8
PLINE001
38
0.0
10
21.9609
20
-33.4323
0
VERTEX
8
PLINE001
38
0.0
10
21.4331
20
-33.7731
0
VERTEX
8
PLINE001
38
0.0
10
20.8999
20
-34.1056
0
VERTEX
8
PLINE001
38
0.0
10
20.3617
20
-34.4297
0
VERTEX
8
PLINE001
38
0.0
10
19.8183
20
-34.7453
0
VERTEX
8
PLINE001
38
0.0
10
19.2701
20
-35.0523
0
VERTEX
8
PLINE001
38
0.0
10
18.7172
20
-35.3506
0
VERTEX
8
PLINE001
38
0.0
10
18.1596
20
-35.6403
0
VERTEX
8
PLINE001
38
0.0
10
17.5976
20
-35.9211
0
VERTEX
8
PLINE001
38
0.0
10
17.0312
20
-36.1931
0
VERTEX
8
PLINE001
38
0.0
10
16.4606
20
-36.4561
0
VERTEX
8
PLINE001
38
0.0
10
15.8859
20
-36.7102
0
VERTEX
8
PLINE001
38
0.0
10
15.3073
20
-36.9552
0
VERTEX
8
PLINE001
38
0.0
10
14.7250
20
-37.1911
0
VERTEX
8
PLINE001
38
0.0
10
14.1390
20
-37.4178
0
VERTEX
8
PLINE001
38
0.0
10
13.5495
20
-37.6352
0
VERTEX
8
PLINE001
38
0.0
10
12.9567
20
-37.8434
0
VERTEX
8
PLINE001
38
0.0
10
12.3607
20
-38.0423
0
VERTEX
8
PLINE001
38
0.0
10
11.7616
20
-38.2317
0
VERTEX
8
PLINE001
38
0.0
10
11.1596
20
-38.4117
0
VERTEX
8
PLINE001
38
0.0
10
10.5549
20
-38.5823
0
VERTEX
8
PLINE001
38
0.0
10
9.9476
20
-38.7433
0
VERTEX
8
PLINE001
38
0.0
10
9.3378
20
-38.8948
0
VERTEX
8
PLINE001
38
0.0
10
8.7257
20
-39.0367
0
VERTEX
8
PLINE001
38
0.0
10
8.1115
20
-39.1689
0
VERTEX
8
PLINE001
38
0.0
10
7.4953
20
-39.2915
0
VERTEX
8
PLINE001
38
0.0
10
6.8772
20
-39.4044
0
VERTEX
8
PLINE001
38
0.0
10
6.2574
20
-39.5075
0
VERTEX
8
PLINE001
38
0.0
10
5.6360
20
-39.6009
0
VERTEX
8
PLINE001
38
0.0
10
5.0133
20
-39.6846
0
VERTEX
8
PLINE001
38
0.0
10
4.3894
20
-39.7584
0
VERTEX
8
PLINE001
38
0.0
10
3.7643
20
-39.8225
0
VERTEX
8
PLINE001
38
0.0
10
3.1384
20
-39.8767
0
VERTEX
8
PLINE001
38
0.0
10
2.5116
20
-39.9211
0
VERTEX
8
PLINE001
38
0.0
10
1.8843
20
-39.9556
0
VERTEX
8
PLINE001
38
0.0
10
1.2564
20
-39.9803
0
VERTEX
8
PLINE001
38
0.0
10
.6283
20
-39.9951
0
VERTEX
8
PLINE001
38
0.0
10
.0000
20
-40.0000
0
VERTEX
8
PLINE001
38
0.0
10
-.6283
20
-39.9951
0
VERTEX
8
PLINE001
38
0.0
10
-1.2564
20
-39.9803
0
VERTEX
8
PLINE001
38
0.0
10
-1.8843
20
-39.9556
0
VERTEX
8
PLINE001
38
0.0
10
-2.5116
20
-39.9211
0
VERTEX
8
PLINE001
38
0.0
10
-3.1384
20
-39.8767
0
VERTEX
8
PLINE001
38
0.0
10
-3.7643
20
-39.8225
0
VERTEX
8
PLINE001
38
0.0
10
-4.3894
20
-39.7584
0
VERTEX
8
PLINE001
38
0.0
10
-5.0133
20
-39.6846
0
VERTEX
8
PLINE001
38
0.0
10
-5.6360
20
-39.6009
0
VERTEX
8
PLINE001
38
0.0
10
-6.2574
20
-39.5075
0
VERTEX
8
PLINE001
38
0.0
10
-6.8772
20
-39.4044
0
VERTEX
8
PLINE001
38
0.0
10
-7.4953
20
-39.2915
0
VERTEX
8
PLINE001
38
0.0
10
-8.1115
20
-39.1689
0
VERTEX
8
PLINE001
38
0.0
10
-8.7257
20
-39.0367
0
VERTEX
8
PLINE001
38
0.0
10
-9.3378
20
-38.8948
0
VERTEX
8
PLINE001
38
0.0
10
-9.9476
20
-38.7433
0
VERTEX
8
PLINE001
38
0.0
10
-10.5549
20
-38.5823
0
VERTEX
8
PLINE001
38
0.0
10
-11.1596
20
-38.4117
0
VERTEX
8
PLINE001
38
0.0
10
-11.7616
20
-38.2317
0
VERTEX
8
PLINE001
38
0.0
10
-12.3607
20
-38.0423
0
VERTEX
8
PLINE001
38
0.0
10
-12.9567
20
-37.8434
0
VERTEX
8
PLINE001
38
0.0
10
-13.5495
20
-37.6352
0
VERTEX
8
PLINE001
38
0.0
10
-14.1390
20
-37.4178
0
VERTEX
8
PLINE001
38
0.0
10
-14.7250
20
-37.1911
0
VERTEX
8
PLINE001
38
0.0
10
-15.3073
20
-36.9552
0
VERTEX
8
PLINE001
38
0.0
10
-15.8859
20
-36.7102
0
VERTEX
8
PLINE001
38
0.0
10
-16.4606
20
-36.4561
0
VERTEX
8
PLINE001
38
0.0
10
-17.0312
20
-36.1931
0
VERTEX
8
PLINE001
38
0.0
10
-17.5976
20
-35.9211
0
VERTEX
8
PLINE001
38
0.0
10
-18.1596
20
-35.6403
0
VERTEX
8
PLINE001
38
0.0
10
-18.7172
20
-35.3506
0
VERTEX
8
PLINE001
38
0.0
10
-19.2701
20
-35.0523
0
VERTEX
8
PLINE001
38
0.0
10
-19.8183
20
-34.7453
0
VERTEX
8
PLINE001
38
0.0
10
-20.3617
20
-34.4297
0
VERTEX
8
PLINE001
38
0.0
10
-20.8999
20
-34.1056
0
VERTEX
8
PLINE001
38
0.0
10
-21.4331
20
-33.7731
0
VERTEX
8
PLINE001
38
0.0
10
-21.9609
20
-33.4323
0
VERTEX
8
PLINE001
38
0.0
10
-22.4833
20
-33.0832
0
VERTEX
8
PLINE001
38
0.0
10
-23.0002
20
-32.7260
0
VERTEX
8
PLINE001
38
0.0
10
-23.5114
20
-32.3607
0
VERTEX
8
PLINE001
38
0.0
10
-24.0168
20
-31.9874
0
VERTEX
8
PLINE001
38
0.0
10
-24.5163
20
-31.6062
0
VERTEX
8
PLINE001
38
0.0
10
-25.0097
20
-31.2172
0
VERTEX
8
PLINE001
38
0.0
10
-25.4970
20
-30.8205
0
VERTEX
8
PLINE001
38
0.0
10
-25.9779
20
-30.4162
0
VERTEX
8
PLINE001
38
0.0
10
-26.4525
20
-30.0044
0
VERTEX
8
PLINE001
38
0.0
10
-26.9205
20
-29.5852
0
VERTEX
8
PLINE001
38
0.0
10
-27.3819
20
-29.1587
0
VERTEX
8
PLINE001
38
0.0
10
-27.8365
20
-28.7251
0
VERTEX
8
PLINE001
38
0.0
10
-28.2843
20
-28.2843
0
VERTEX
8
PLINE001
38
0.0
10
-28.7251
20
-27.8365
0
VERTEX
8
PLINE001
38
0.0
10
-29.1587
20
-27.3819
0
VERTEX
8
PLINE001
38
0.0
10
-29.5852
20
-26.9205
0
VERTEX
8
PLINE001
38
0.0
10
-30.0044
20
-26.4525
0
VERTEX
8
PLINE001
38
0.0
10
-30.4162
20
-25.9779
0
VERTEX
8
PLINE001
38
0.0
10
-30.8205
20
-25.4970
0
VERTEX
8
PLINE001
38
0.0
10
-31.2172
20
-25.0097
0
VERTEX
8
PLINE001
38
0.0
10
-31.6062
20
-24.5163
0
VERTEX
8
PLINE001
38
0.0
10
-31.9874
20
-24.0168
0
VERTEX
8
PLINE001
38
0.0
10
-32.3607
20
-23.5114
0
VERTEX
8
PLINE001
38
0.0
10
-32.7260
20
-23.0002
0
VERTEX
8
PLINE001
38
0.0
10
-33.0832
20
-22.4833
0
VERTEX
8
PLINE001
38
0.0
10
-33.4323
20
-21.9609
0
VERTEX
8
PLINE001
38
0.0
10
-33.7731
20
-21.4331
0
VERTEX
8
PLINE001
38
0.0
10
-34.1056
20
-20.8999
0
VERTEX
8
PLINE001
38
0.0
10
-34.4297
20
-20.3617
0
VERTEX
8
PLINE001
38
0.0
10
-34.7453
20
-19.8183
0
VERTEX
8
PLINE001
38
0.0
10
-35.0523
20
-19.2701
0
VERTEX
8
PLINE001
38
0.0
10
-35.3506
20
-18.7172
0
VERTEX
8
PLINE001
38
0.0
10
-35.6403
20
-18.1596
0
VERTEX
8
PLINE001
38
0.0
10
-35.9211
20
-17.5976
0
VERTEX
8
PLINE001
38
0.0
10
-36.1931
20
-17.0312
0
VERTEX
8
PLINE001
38
0.0
10
-36.4561
20
-16.4606
0
VERTEX
8
PLINE001
38
0.0
10
-36.7102
20
-15.8859
0
VERTEX
8
PLINE001
38
0.0
10
-36.9552
20
-15.3073
0
VERTEX
8
PLINE001
38
0.0
10
-37.1911
20
-14.7250
0
VERTEX
8
PLINE001
38
0.0
10
-37.4178
20
-14.1390
0
VERTEX
8
PLINE001
38
0.0
10
-37.6352
20
-13.5495
0
VERTEX
8
PLINE001
38
0.0
10
-37.8434
20
-12.9567
0
VERTEX
8
PLINE001
38
0.0
10
-38.0423
20
-12.3607
0
VERTEX
8
PLINE001
38
0.0
10
-38.2317
20
-11.7616
0
VERTEX
8
PLINE001
38
0.0
10
-38.4117
20
-11.1596
0
VERTEX
8
PLINE001
38
0.0
10
-38.5823
20
-10.5549
0
VERTEX
8
PLINE001
38
0.0
10
-38.7433
20
-9.9476
0
VERTEX
8
PLINE001
38
0.0
10
-38.8948
20
-9.3378
0
VERTEX
8
PLINE001
38
0.0
10
-39.0367
20
-8.7257
0
VERTEX
8
PLINE001
38
0.0
10
-39.1689
20
-8.1115
0
VERTEX
8
PLINE001
38
0.0
10
-39.2915
20
-7.4953
0
VERTEX
8
PLINE001
38
0.0
10
-39.4044
20
-6.8772
0
VERTEX
8
PLINE001
38
0.0
10
-39.5075
20
-6.2574
0
VERTEX
8
PLINE001
38
0.0
10
-39.6009
20
-5.6360
0
VERTEX
8
PLINE001
38
0.0
10
-39.6846
20
-5.0133
0
VERTEX
8
PLINE001
38
0.0
10
-39.7584
20
-4.3894
0
VERTEX
8
PLINE001
38
0.0
10
-39.8225
20
-3.7643
0
VERTEX
8
PLINE001
38
0.0
10
-39.8767
20
-3.1384
0
VERTEX
8
PLINE001
38
0.0
10
-39.9211
20
-2.5116
0
VERTEX
8
PLINE001
38
0.0
10
-39.9556
20
-1.8843
0
VERTEX
8
PLINE001
38
0.0
10
-39.9803
20
-1.2564
0
VERTEX
8
PLINE001
38
0.0
10
-39.9951
20
-.6283
0
VERTEX
8
PLINE001
38
0.0
10
-40.0000
20
.0000
0
VERTEX
8
PLINE001
38
0.0
10
-39.9951
20
.6283
0
VERTEX
8
PLINE001
38
0.0
10
-39.9803
20
1.2564
0
VERTEX
8
PLINE001
38
0.0
10
-39.9556
20
1.8843
0
VERTEX
8
PLINE001
38
0.0
10
-39.9211
20
2.5116
0
VERTEX
8
PLINE001
38
0.0
10
-39.8767
20
3.1384
0
VERTEX
8
PLINE001
38
0.0
10
-39.8225
20
3.7643
0
VERTEX
8
PLINE001
38
0.0
10
-39.7584
20
4.3894
0
VERTEX
8
PLINE001
38
0.0
10
-39.6846
20
5.0133
0
VERTEX
8
PLINE001
38
0.0
10
-39.6009
20
5.6360
0
VERTEX
8
PLINE001
38
0.0
10
-39.5075
20
6.2574
0
VERTEX
8
PLINE001
38
0.0
10
-39.4044
20
6.8772
0
VERTEX
8
PLINE001
38
0.0
10
-39.2915
20
7.4953
0
VERTEX
8
PLINE001
38
0.0
10
-39.1689
20
8.1115
0
VERTEX
8
PLINE001
38
0.0
10
-39.0367
20
8.7257
0
VERTEX
8
PLINE001
38
0.0
10
-38.8948
20
9.3378
0
VERTEX
8
PLINE001
38
0.0
10
-38.7433
20
9.9476
0
VERTEX
8
PLINE001
38
0.0
10
-38.5823
20
10.5549
0
VERTEX
8
PLINE001
38
0.0
10
-38.4117
20
11.1596
0
VERTEX
8
PLINE001
38
0.0
10
-38.2317
20
11.7616
0
VERTEX
8
PLINE001
38
0.0
10
-38.0423
20
12.3607
0
VERTEX
8
PLINE001
38
0.0
10
-37.8434
20
12.9567
0
VERTEX
8
PLINE001
38
0.0
10
-37.6352
20
13.5495
0
VERTEX
8
PLINE001
38
0.0
10
-37.4178
20
14.1390
0
VERTEX
8
PLINE001
38
0.0
10
-37.1911
20
14.7250
0
VERTEX
8
PLINE001
38
0.0
10
-36.9552
20
15.3073
0
VERTEX
8
PLINE001
38
0.0
10
-36.7102
20
15.8859
0
VERTEX
8
PLINE001
38
0.0
10
-36.4561
20
16.4606
0
VERTEX
8
PLINE001
38
0.0
10
-36.1931
20
17.0312
0
VERTEX
8
PLINE001
38
0.0
10
-35.9211
20
17.5976
0
VERTEX
8
PLINE001
38
0.0
10
-35.6403
20
18.1596
0
VERTEX
8
PLINE001
38
0.0
10
-35.3506
20
18.7172
0
VERTEX
8
PLINE001
38
0.0
10
-35.0523
20
19.2701
0
VERTEX
8
PLINE001
38
0.0
10
-34.7453
20
19.8183
0
VERTEX
8
PLINE001
38
0.0
10
-34.4297
20
20.3617
0
VERTEX
8
PLINE001
38
0.0
10
-34.1056
20
20.8999
0
VERTEX
8
PLINE001
38
0.0
10
-33.7731
20
21.4331
0
VERTEX
8
PLINE001
38
0.0
10
-33.4323
20
21.9609
0
VERTEX
8
PLINE001
38
0.0
10
-33.0832
20
22.4833
0
VERTEX
8
PLINE001
38
0.0
10
-32.7260
20
23.0002
0
VERTEX
8
PLINE001
38
0.0
10
-32.3607
20
23.5114
0
VERTEX
8
PLINE001
38
0.0
10
-31.9874
20
24.0168
0
VERTEX
8
PLINE001
38
0.0
10
-31.6062
20
24.5163
0
VERTEX
8
PLINE001
38
0.0
10
-31.2172
20
25.0097
0
VERTEX
8
PLINE001
38
0.0
10
-30.8205
20
25.4970
0
VERTEX
8
PLINE001
38
0.0
10
-30.4162
20
25.9779
0
VERTEX
8
PLINE001
38
0.0
10
-30.0044
20
26.4525
0
VERTEX
8
PLINE001
38
0.0
10
-29.5852
20
26.9205
0
VERTEX
8
PLINE001
38
0.0
10
-29.1587
20
27.3819
0
VERTEX
8
PLINE001
38
0.0
10
-28.7251
20
27.8365
0
VERTEX
8
PLINE001
38
0.0
10
-28.2843
20
28.2843
0
VERTEX
8
PLINE001
38
0.0
10
-27.8365
20
28.7251
0
VERTEX
8
PLINE001
38
0.0
10
-27.3819
20
29.1587
0
VERTEX
8
PLINE001
38
0.0
10
-26.9205
20
29.5852
0
VERTEX
8
PLINE001
38
0.0
10
-26.4525
20
30.0044
0
VERTEX
8
PLINE001
38
0.0
10
-25.9779
20
30.4162
0
VERTEX
8
PLINE001
38
0.0
10
-25.4970
20
30.8205
0
VERTEX
8
PLINE001
38
0.0
10
-25.0097
20
31.2172
0
VERTEX
8
PLINE001
38
0.0
10
-24.5163
20
31.6062
0
VERTEX
8
PLINE001
38
0.0
10
-24.0168
20
31.9874
0
VERTEX
8
PLINE001
38
0.0
10
-23.5114
20
32.3607
0
VERTEX
8
PLINE001
38
0.0
10
-23.0002
20
32.7260
0
VERTEX
8
PLINE001
38
0.0
10
-22.4833
20
33.0832
0
VERTEX
8
PLINE001
38
0.0
10
-21.9609
20
33.4323
0
VERTEX
8
PLINE001
38
0.0
10
-21.4331
20
33.7731
0
VERTEX
8
PLINE001
38
0.0
10
-20.8999
20
34.1056
0
VERTEX
8
PLINE001
38
0.0
10
-20.3617
20
34.4297
0
VERTEX
8
PLINE001
38
0.0
10
-19.8183
20
34.7453
0
VERTEX
8
PLINE001
38
0.0
10
-19.2701
20
35.0523
0
VERTEX
8
PLINE001
38
0.0
10
-18.7172
20
35.3506
0
VERTEX
8
PLINE001
38
0.0
10
-18.1596
20
35.6403
0
VERTEX
8
PLINE001
38
0.0
10
-17.5976
20
35.9211
0
VERTEX
8
PLINE001
38
0.0
10
-17.0312
20
36.1931
0
VERTEX
8
PLINE001
38
0.0
10
-16.4606
20
36.4561
0
VERTEX
8
PLINE001
38
0.0
10
-15.8859
20
36.7102
0
VERTEX
8
PLINE001
38
0.0
10
-15.3073
20
36.9552
0
VERTEX
8
PLINE001
38
0.0
10
-14.7250
20
37.1911
0
VERTEX
8
PLINE001
38
0.0
10
-14.1390
20
37.4178
0
VERTEX
8
PLINE001
38
0.0
10
-13.5495
20
37.6352
0
VERTEX
8
PLINE001
38
0.0
10
-12.9567
20
37.8434
0
VERTEX
8
PLINE001
38
0.0
10
-12.3607
20
38.0423
0
VERTEX
8
PLINE001
38
0.0
10
-11.7616
20
38.2317
0
VERTEX
8
PLINE001
38
0.0
10
-11.1596
20
38.4117
0
VERTEX
8
PLINE001
38
0.0
10
-10.5549
20
38.5823
0
VERTEX
8
PLINE001
38
0.0
10
-9.9476
20
38.7433
0
VERTEX
8
PLINE001
38
0.0
10
-9.3378
20
38.8948
0
VERTEX
8
PLINE001
38
0.0
10
-8.7257
20
39.0367
0
VERTEX
8
PLINE001
38
0.0
10
-8.1115
20
39.1689
0
VERTEX
8
PLINE001
38
0.0
10
-7.4953
20
39.2915
0
VERTEX
8
PLINE001
38
0.0
10
-6.8772
20
39.4044
0
VERTEX
8
PLINE001
38
0.0
10
-6.2574
20
39.5075
0
VERTEX
8
PLINE001
38
0.0
10
-5.6360
20
39.6009
0
VERTEX
8
PLINE001
38
0.0
10
-5.0133
20
39.6846
0
VERTEX
8
PLINE001
38
0.0
10
-4.3894
20
39.7584
0
VERTEX
8
PLINE001
38
0.0
10
-3.7643
20
39.8225
0
VERTEX
8
PLINE001
38
0.0
10
-3.1384
20
39.8767
0
VERTEX
8
PLINE001
38
0.0
10
-2.5116
20
39.9211
0
VERTEX
8
PLINE001
38
0.0
10
-1.8843
20
39.9556
0
VERTEX
8
PLINE001
38
0.0
10
-1.2564
20
39.9803
0
VERTEX
8
PLINE001
38
0.0
10
-.6283
20
39.9951
0
VERTEX
8
PLINE001
38
0.0
10
.0000
20
40.0000
0
VERTEX
8
PLINE001
38
0.0
10
.6283
20
39.9951
0
SEQEND
8
PLINE001
0
POLYLINE
8
PLINE001
38
0.0
66
1
0
VERTEX
8
PLINE001
38
0.0
10
.4712
20
29.9963
0
VERTEX
8
PLINE001
38
0.0
10
.9423
20
29.9852
0
VERTEX
8
PLINE001
38
0.0
10
1.4132
20
29.9667
0
VERTEX
8
PLINE001
38
0.0
10
1.8837
20
29.9408
0
VERTEX
8
PLINE001
38
0.0
10
2.3538
20
29.9075
0
VERTEX
8
PLINE001
38
0.0
10
2.8232
20
29.8669
0
VERTEX
8
PLINE001
38
0.0
10
3.2920
20
29.8188
0
VERTEX
8
PLINE001
38
0.0
10
3.7600
20
29.7634
0
VERTEX
8
PLINE001
38
0.0
10
4.2270
20
29.7007
0
VERTEX
8
PLINE001
38
0.0
10
4.6930
20
29.6306
0
VERTEX
8
PLINE001
38
0.0
10
5.1579
20
29.5533
0
VERTEX
8
PLINE001
38
0.0
10
5.6214
20
29.4686
0
VERTEX
8
PLINE001
38
0.0
10
6.0836
20
29.3767
0
VERTEX
8
PLINE001
38
0.0
10
6.5443
20
29.2775
0
VERTEX
8
PLINE001
38
0.0
10
7.0034
20
29.1711
0
VERTEX
8
PLINE001
38
0.0
10
7.4607
20
29.0575
0
VERTEX
8
PLINE001
38
0.0
10
7.9162
20
28.9367
0
VERTEX
8
PLINE001
38
0.0
10
8.3697
20
28.8088
0
VERTEX
8
PLINE001
38
0.0
10
8.8212
20
28.6738
0
VERTEX
8
PLINE001
38
0.0
10
9.2705
20
28.5317
0
VERTEX
8
PLINE001
38
0.0
10
9.7175
20
28.3826
0
VERTEX
8
PLINE001
38
0.0
10
10.1621
20
28.2264
0
VERTEX
8
PLINE001
38
0.0
10
10.6042
20
28.0633
0
VERTEX
8
PLINE001
38
0.0
10
11.0437
20
27.8933
0
VERTEX
8
PLINE001
38
0.0
10
11.4805
20
27.7164
0
VERTEX
8
PLINE001
38
0.0
10
11.9144
20
27.5326
0
VERTEX
8
PLINE001
38
0.0
10
12.3454
20
27.3421
0
VERTEX
8
PLINE001
38
0.0
10
12.7734
20
27.1448
0
VERTEX
8
PLINE001
38
0.0
10
13.1982
20
26.9408
0
VERTEX
8
PLINE001
38
0.0
10
13.6197
20
26.7302
0
VERTEX
8
PLINE001
38
0.0
10
14.0379
20
26.5130
0
VERTEX
8
PLINE001
38
0.0
10
14.4526
20
26.2892
0
VERTEX
8
PLINE001
38
0.0
10
14.8638
20
26.0589
0
VERTEX
8
PLINE001
38
0.0
10
15.2712
20
25.8223
0
VERTEX
8
PLINE001
38
0.0
10
15.6750
20
25.5792
0
VERTEX
8
PLINE001
38
0.0
10
16.0748
20
25.3298
0
VERTEX
8
PLINE001
38
0.0
10
16.4707
20
25.0742
0
VERTEX
8
PLINE001
38
0.0
10
16.8625
20
24.8124
0
VERTEX
8
PLINE001
38
0.0
10
17.2502
20
24.5445
0
VERTEX
8
PLINE001
38
0.0
10
17.6336
20
24.2705
0
VERTEX
8
PLINE001
38
0.0
10
18.0126
20
23.9905
0
VERTEX
8
PLINE001
38
0.0
10
18.3872
20
23.7047
0
VERTEX
8
PLINE001
38
0.0
10
18.7573
20
23.4129
0
VERTEX
8
PLINE001
38
0.0
10
19.1227
20
23.1154
0
VERTEX
8
PLINE001
38
0.0
10
19.4834
20
22.8122
0
VERTEX
8
PLINE001
38
0.0
10
19.8394
20
22.5033
0
VERTEX
8
PLINE001
38
0.0
10
20.1904
20
22.1889
0
VERTEX
8
PLINE001
38
0.0
10
20.5364
20
21.8691
0
VERTEX
8
PLINE001
38
0.0
10
20.8774
20
21.5438
0
VERTEX
8
PLINE001
38
0.0
10
21.2132
20
21.2132
0
VERTEX
8
PLINE001
38
0.0
10
21.5438
20
20.8774
0
VERTEX
8
PLINE001
38
0.0
10
21.8691
20
20.5364
0
VERTEX
8
PLINE001
38
0.0
10
22.1889
20
20.1904
0
VERTEX
8
PLINE001
38
0.0
10
22.5033
20
19.8394
0
VERTEX
8
PLINE001
38
0.0
10
22.8122
20
19.4834
0
VERTEX
8
PLINE001
38
0.0
10
23.1154
20
19.1227
0
VERTEX
8
PLINE001
38
0.0
10
23.4129
20
18.7573
0
VERTEX
8
PLINE001
38
0.0
10
23.7047
20
18.3872
0
VERTEX
8
PLINE001
38
0.0
10
23.9905
20
18.0126
0
VERTEX
8
PLINE001
38
0.0
10
24.2705
20
17.6336
0
VERTEX
8
PLINE001
38
0.0
10
24.5445
20
17.2502
0
VERTEX
8
PLINE001
38
0.0
10
24.8124
20
16.8625
0
VERTEX
8
PLINE001
38
0.0
10
25.0742
20
16.4707
0
VERTEX
8
PLINE001
38
0.0
10
25.3298
20
16.0748
0
VERTEX
8
PLINE001
38
0.0
10
25.5792
20
15.6750
0
VERTEX
8
PLINE001
38
0.0
10
25.8223
20
15.2712
0
VERTEX
8
PLINE001
38
0.0
10
26.0589
20
14.8638
0
VERTEX
8
PLINE001
38
0.0
10
26.2892
20
14.4526
0
VERTEX
8
PLINE001
38
0.0
10
26.5130
20
14.0379
0
VERTEX
8
PLINE001
38
0.0
10
26.7302
20
13.6197
0
VERTEX
8
PLINE001
38
0.0
10
26.9408
20
13.1982
0
VERTEX
8
PLINE001
38
0.0
10
27.1448
20
12.7734
0
VERTEX
8
PLINE001
38
0.0
10
27.3421
20
12.3454
0
VERTEX
8
PLINE001
38
0.0
10
27.5326
20
11.9144
0
VERTEX
8
PLINE001
38
0.0
10
27.7164
20
11.4805
0
VERTEX
8
PLINE001
38
0.0
10
27.8933
20
11.0437
0
VERTEX
8
PLINE001
38
0.0
10
28.0633
20
10.6042
0
VERTEX
8
PLINE001
38
0.0
10
28.2264
20
10.1621
0
VERTEX
8
PLINE001
38
0.0
10
28.3826
20
9.7175
0
VERTEX
8
PLINE001
38
0.0
10
28.5317
20
9.2705
0
VERTEX
8
PLINE001
38
0.0
10
28.6738
20
8.8212
0
VERTEX
8
PLINE001
38
0.0
10
28.8088
20
8.3697
0
VERTEX
8
PLINE001
38
0.0
10
28.9367
20
7.9162
0
VERTEX
8
PLINE001
38
0.0
10
29.0575
20
7.4607
0
VERTEX
8
PLINE001
38
0.0
10
29.1711
20
7.0034
0
VERTEX
8
PLINE001
38
0.0
10
29.2775
20
6.5443
0
VERTEX
8
PLINE001
38
0.0
10
29.3767
20
6.0836
0
VERTEX
8
PLINE001
38
0.0
10
29.4686
20
5.6214
0
VERTEX
8
PLINE001
38
0.0
10
29.5533
20
5.1579
0
VERTEX
8
PLINE001
38
0.0
10
29.6306
20
4.6930
0
VERTEX
8
PLINE001
38
0.0
10
29.7007
20
4.2270
0
VERTEX
8
PLINE001
38
0.0
10
29.7634
20
3.7600
0
VERTEX
8
PLINE001
38
0.0
10
29.8188
20
3.2920
0
VERTEX
8
PLINE001
38
0.0
10
29.8669
20
2.8232
0
VERTEX
8
PLINE001
38
0.0
10
29.9075
20
2.3538
0
VERTEX
8
PLINE001
38
0.0
10
29.9408
20
1.8837
0
VERTEX
8
PLINE001
38
0.0
10
29.9667
20
1.4132
0
VERTEX
8
PLINE001
38
0.0
10
29.9852
20
.9423
0
VERTEX
8
PLINE001
38
0.0
10
29.9963
20
.4712
0
VERTEX
8
PLINE001
38
0.0
10
30.0000
20
.0000
0
VERTEX
8
PLINE001
38
0.0
10
29.9963
20
-.4712
0
VERTEX
8
PLINE001
38
0.0
10
29.9852
20
-.9423
0
VERTEX
8
PLINE001
38
0.0
10
29.9667
20
-1.4132
0
VERTEX
8
PLINE001
38
0.0
10
29.9408
20
-1.8837
0
VERTEX
8
PLINE001
38
0.0
10
29.9075
20
-2.3538
0
VERTEX
8
PLINE001
38
0.0
10
29.8669
20
-2.8232
0
VERTEX
8
PLINE001
38
0.0
10
29.8188
20
-3.2920
0
VERTEX
8
PLINE001
38
0.0
10
29.7634
20
-3.7600
0
VERTEX
8
PLINE001
38
0.0
10
29.7007
20
-4.2270
0
VERTEX
8
PLINE001
38
0.0
10
29.6306
20
-4.6930
0
VERTEX
8
PLINE001
38
0.0
10
29.5533
20
-5.1579
0
VERTEX
8
PLINE001
38
0.0
10
29.4686
20
-5.6214
0
VERTEX
8
PLINE001
38
0.0
10
29.3767
20
-6.0836
0
VERTEX
8
PLINE001
38
0.0
10
29.2775
20
-6.5443
0
VERTEX
8
PLINE001
38
0.0
10
29.1711
20
-7.0034
0
VERTEX
8
PLINE001
38
0.0
10
29.0575
20
-7.4607
0
VERTEX
8
PLINE001
38
0.0
10
28.9367
20
-7.9162
0
VERTEX
8
PLINE001
38
0.0
10
28.8088
20
-8.3697
0
VERTEX
8
PLINE001
38
0.0
10
28.6738
20
-8.8212
0
VERTEX
8
PLINE001
38
0.0
10
28.5317
20
-9.2705
0
VERTEX
8
PLINE001
38
0.0
10
28.3826
20
-9.7175
0
VERTEX
8
PLINE001
38
0.0
10
28.2264
20
-10.1621
0
VERTEX
8
PLINE001
38
0.0
10
28.0633
20
-10.6042
0
VERTEX
8
PLINE001
38
0.0
10
27.8933
20
-11.0437
0
VERTEX
8
PLINE001
38
0.0
10
27.7164
20
-11.4805
0
VERTEX
8
PLINE001
38
0.0
10
27.5326
20
-11.9144
0
VERTEX
8
PLINE001
38
0.0
10
27.3421
20
-12.3454
0
VERTEX
8
PLINE001
38
0.0
10
27.1448
20
-12.7734
0
VERTEX
8
PLINE001
38
0.0
10
26.9408
20
-13.1982
0
VERTEX
8
PLINE001
38
0.0
10
26.7302
20
-13.6197
0
VERTEX
8
PLINE001
38
0.0
10
26.5130
20
-14.0379
0
VERTEX
8
PLINE001
38
0.0
10
26.2892
20
-14.4526
0
VERTEX
8
PLINE001
38
0.0
10
26.0589
20
-14.8638
0
VERTEX
8
PLINE001
38
0.0
10
25.8223
20
-15.2712
0
VERTEX
8
PLINE001
38
0.0
10
25.5792
20
-15.6750
0
VERTEX
8
PLINE001
38
0.0
10
25.3298
20
-16.0748
0
VERTEX
8
PLINE001
38
0.0
10
25.0742
20
-16.4707
0
VERTEX
8
PLINE001
38
0.0
10
24.8124
20
-16.8625
0
VERTEX
8
PLINE001
38
0.0
10
24.5445
20
-17.2502
0
VERTEX
8
PLINE001
38
0.0
10
24.2705
20
-17.6336
0
VERTEX
8
PLINE001
38
0.0
10
23.9905
20
-18.0126
0
VERTEX
8
PLINE001
38
0.0
10
23.7047
20
-18.3872
0
VERTEX
8
PLINE001
38
0.0
10
23.4129
20
-18.7573
0
VERTEX
8
PLINE001
38
0.0
10
23.1154
20
-19.1227
0
VERTEX
8
PLINE001
38
0.0
10
22.8122
20
-19.4834
0
VERTEX
8
PLINE001
38
0.0
10
22.5033
20
-19.8394
0
VERTEX
8
PLINE001
38
0.0
10
22.1889
20
-20.1904
0
VERTEX
8
PLINE001
38
0.0
10
21.8691
20
-20.5364
0
VERTEX
8
PLINE001
38
0.0
10
21.5438
20
-20.8774
0
VERTEX
8
PLINE001
38
0.0
10
21.2132
20
-21.2132
0
VERTEX
8
PLINE001
38
0.0
10
20.8774
20
-21.5438
0
VERTEX
8
PLINE001
38
0.0
10
20.5364
20
-21.8691
0
VERTEX
8
PLINE001
38
0.0
10
20.1904
20
-22.1889
0
VERTEX
8
PLINE001
38
0.0
10
19.8394
20
-22.5033
0
VERTEX
8
PLINE001
38
0.0
10
19.4834
20
-22.8122
0
VERTEX
8
PLINE001
38
0.0
10
19.1227
20
-23.1154
0
VERTEX
8
PLINE001
38
0.0
10
18.7573
20
-23.4129
0
VERTEX
8
PLINE001
38
0.0
10
18.3872
20
-23.7047
0
VERTEX
8
PLINE001
38
0.0
10
18.0126
20
-23.9905
0
VERTEX
8
PLINE001
38
0.0
10
17.6336
20
-24.2705
0
VERTEX
8
PLINE001
38
0.0
10
17.2502
20
-24.5445
0
VERTEX
8
PLINE001
38
0.0
10
16.8625
20
-24.8124
0
VERTEX
8
PLINE001
38
0.0
10
16.4707
20
-25.0742
0
VERTEX
8
PLINE001
38
0.0
10
16.0748
20
-25.3298
0
VERTEX
8
PLINE001
38
0.0
10
15.6750
20
-25.5792
0
VERTEX
8
PLINE001
38
0.0
10
15.2712
20
-25.8223
0
VERTEX
8
PLINE001
38
0.0
10
14.8638
20
-26.0589
0
VERTEX
8
PLINE001
38
0.0
10
14.4526
20
-26.2892
0
VERTEX
8
PLINE001
38
0.0
10
14.0379
20
-26.5130
0
VERTEX
8
PLINE001
38
0.0
10
13.6197
20
-26.7302
0
VERTEX
8
PLINE001
38
0.0
10
13.1982
20
-26.9408
0
VERTEX
8
PLINE001
38
0.0
10
12.7734
20
-27.1448
0
VERTEX
8
PLINE001
38
0.0
10
12.3454
20
-27.3421
0
VERTEX
8
PLINE001
38
0.0
10
11.9144
20
-27.5326
0
VERTEX
8
PLINE001
38
0.0
10
11.4805
20
-27.7164
0
VERTEX
8
PLINE001
38
0.0
10
11.0437
20
-27.8933
0
VERTEX
8
PLINE001
38
0.0
10
10.6042
20
-28.0633
0
VERTEX
8
PLINE001
38
0.0
10
10.1621
20
-28.2264
0
VERTEX
8
PLINE001
38
0.0
10
9.7175
20
-28.3826
0
VERTEX
8
PLINE001
38
0.0
10
9.2705
20
-28.5317
0
VERTEX
8
PLINE001
38
0.0
10
8.8212
20
-28.6738
0
VERTEX
8
PLINE001
38
0.0
10
8.3697
20
-28.8088
0
VERTEX
8
PLINE001
38
0.0
10
7.9162
20
-28.9367
0
VERTEX
8
PLINE001
38
0.0
10
7.4607
20
-29.0575
0
VERTEX
8
PLINE001
38
0.0
10
7.0034
20
-29.1711
0
VERTEX
8
PLINE001
38
0.0
10
6.5443
20
-29.2775
0
VERTEX
8
PLINE001
38
0.0
10
6.0836
20
-29.3767
0
VERTEX
8
PLINE001
38
0.0
10
5.6214
20
-29.4686
0
VERTEX
8
PLINE001
38
0.0
10
5.1579
20
-29.5533
0
VERTEX
8
PLINE001
38
0.0
10
4.6930
20
-29.6306
0
VERTEX
8
PLINE001
38
0.0
10
4.2270
20
-29.7007
0
VERTEX
8
PLINE001
38
0.0
10
3.7600
20
-29.7634
0
VERTEX
8
PLINE001
38
0.0
10
3.2920
20
-29.8188
0
VERTEX
8
PLINE001
38
0.0
10
2.8232
20
-29.8669
0
VERTEX
8
PLINE001
38
0.0
10
2.3538
20
-29.9075
0
VERTEX
8
PLINE001
38
0.0
10
1.8837
20
-29.9408
0
VERTEX
8
PLINE001
38
0.0
10
1.4132
20
-29.9667
0
VERTEX
8
PLINE001
38
0.0
10
.9423
20
-29.9852
0
VERTEX
8
PLINE001
38
0.0
10
.4712
20
-29.9963
0
VERTEX
8
PLINE001
38
0.0
10
.0000
20
-30.0000
0
VERTEX
8
PLINE001
38
0.0
10
-.4712
20
-29.9963
0
VERTEX
8
PLINE001
38
0.0
10
-.9423
20
-29.9852
0
VERTEX
8
PLINE001
38
0.0
10
-1.4132
20
-29.9667
0
VERTEX
8
PLINE001
38
0.0
10
-1.8837
20
-29.9408
0
VERTEX
8
PLINE001
38
0.0
10
-2.3538
20
-29.9075
0
VERTEX
8
PLINE001
38
0.0
10
-2.8232
20
-29.8669
0
VERTEX
8
PLINE001
38
0.0
10
-3.2920
20
-29.8188
0
VERTEX
8
PLINE001
38
0.0
10
-3.7600
20
-29.7634
0
VERTEX
8
PLINE001
38
0.0
10
-4.2270
20
-29.7007
0
VERTEX
8
PLINE001
38
0.0
10
-4.6930
20
-29.6306
0
VERTEX
8
PLINE001
38
0.0
10
-5.1579
20
-29.5533
0
VERTEX
8
PLINE001
38
0.0
10
-5.6214
20
-29.4686
0
VERTEX
8
PLINE001
38
0.0
10
-6.0836
20
-29.3767
0
VERTEX
8
PLINE001
38
0.0
10
-6.5443
20
-29.2775
0
VERTEX
8
PLINE001
38
0.0
10
-7.0034
20
-29.1711
0
VERTEX
8
PLINE001
38
0.0
10
-7.4607
20
-29.0575
0
VERTEX
8
PLINE001
38
0.0
10
-7.9162
20
-28.9367
0
VERTEX
8
PLINE001
38
0.0
10
-8.3697
20
-28.8088
0
VERTEX
8
PLINE001
38
0.0
10
-8.8212
20
-28.6738
0
VERTEX
8
PLINE001
38
0.0
10
-9.2705
20
-28.5317
0
VERTEX
8
PLINE001
38
0.0
10
-9.7175
20
-28.3826
0
VERTEX
8
PLINE001
38
0.0
10
-10.1621
20
-28.2264
0
VERTEX
8
PLINE001
38
0.0
10
-10.6042
20
-28.0633
0
VERTEX
8
PLINE001
38
0.0
10
-11.0437
20
-27.8933
0
VERTEX
8
PLINE001
38
0.0
10
-11.4805
20
-27.7164
0
VERTEX
8
PLINE001
38
0.0
10
-11.9144
20
-27.5326
0
VERTEX
8
PLINE001
38
0.0
10
-12.3454
20
-27.3421
0
VERTEX
8
PLINE001
38
0.0
10
-12.7734
20
-27.1448
0
VERTEX
8
PLINE001
38
0.0
10
-13.1982
20
-26.9408
0
VERTEX
8
PLINE001
38
0.0
10
-13.6197
20
-26.7302
0
VERTEX
8
PLINE001
38
0.0
10
-14.0379
20
-26.5130
0
VERTEX
8
PLINE001
38
0.0
10
-14.4526
20
-26.2892
0
VERTEX
8
PLINE001
38
0.0
10
-14.8638
20
-26.0589
0
VERTEX
8
PLINE001
38
0.0
10
-15.2712
20
-25.8223
0
VERTEX
8
PLINE001
38
0.0
10
-15.6750
20
-25.5792
0
VERTEX
8
PLINE001
38
0.0
10
-16.0748
20
-25.3298
0
VERTEX
8
PLINE001
38
0.0
10
-16.4707
20
-25.0742
0
VERTEX
8
PLINE001
38
0.0
10
-16.8625
20
-24.8124
0
VERTEX
8
PLINE001
38
0.0
10
-17.2502
20
-24.5445
0
VERTEX
8
PLINE001
38
0.0
10
-17.6336
20
-24.2705
0
VERTEX
8
PLINE001
38
0.0
10
-18.0126
20
-23.9905
0
VERTEX
8
PLINE001
38
0.0
10
-18.3872
20
-23.7047
0
VERTEX
8
PLINE001
38
0.0
10
-18.7573
20
-23.4129
0
VERTEX
8
PLINE001
38
0.0
10
-19.1227
20
-23.1154
0
VERTEX
8
PLINE001
38
0.0
10
-19.4834
20
-22.8122
0
VERTEX
8
PLINE001
38
0.0
10
-19.8394
20
-22.5033
0
VERTEX
8
PLINE001
38
0.0
10
-20.1904
20
-22.1889
0
VERTEX
8
PLINE001
38
0.0
10
-20.5364
20
-21.8691
0
VERTEX
8
PLINE001
38
0.0
10
-20.8774
20
-21.5438
0
VERTEX
8
PLINE001
38
0.0
10
-21.2132
20
-21.2132
0
VERTEX
8
PLINE001
38
0.0
10
-21.5438
20
-20.8774
0
VERTEX
8
PLINE001
38
0.0
10
-21.8691
20
-20.5364
0
VERTEX
8
PLINE001
38
0.0
10
-22.1889
20
-20.1904
0
VERTEX
8
PLINE001
38
0.0
10
-22.5033
20
-19.8394
0
VERTEX
8
PLINE001
38
0.0
10
-22.8122
20
-19.4834
0
VERTEX
8
PLINE001
38
0.0
10
-23.1154
20
-19.1227
0
VERTEX
8
PLINE001
38
0.0
10
-23.4129
20
-18.7573
0
VERTEX
8
PLINE001
38
0.0
10
-23.7047
20
-18.3872
0
VERTEX
8
PLINE001
38
0.0
10
-23.9905
20
-18.0126
0
VERTEX
8
PLINE001
38
0.0
10
-24.2705
20
-17.6336
0
VERTEX
8
PLINE001
38
0.0
10
-24.5445
20
-17.2502
0
VERTEX
8
PLINE001
38
0.0
10
-24.8124
20
-16.8625
0
VERTEX
8
PLINE001
38
0.0
10
-25.0742
20
-16.4707
0
VERTEX
8
PLINE001
38
0.0
10
-25.3298
20
-16.0748
0
VERTEX
8
PLINE001
38
0.0
10
-25.5792
20
-15.6750
0
VERTEX
8
PLINE001
38
0.0
10
-25.8223
20
-15.2712
0
VERTEX
8
PLINE001
38
0.0
10
-26.0589
20
-14.8638
0
VERTEX
8
PLINE001
38
0.0
10
-26.2892
20
-14.4526
0
VERTEX
8
PLINE001
38
0.0
10
-26.5130
20
-14.0379
0
VERTEX
8
PLINE001
38
0.0
10
-26.7302
20
-13.6197
0
VERTEX
8
PLINE001
38
0.0
10
-26.9408
20
-13.1982
0
VERTEX
8
PLINE001
38
0.0
10
-27.1448
20
-12.7734
0
VERTEX
8
PLINE001
38
0.0
10
-27.3421
20
-12.3454
0
VERTEX
8
PLINE001
38
0.0
10
-27.5326
20
-11.9144
0
VERTEX
8
PLINE001
38
0.0
10
-27.7164
20
-11.4805
0
VERTEX
8
PLINE001
38
0.0
10
-27.8933
20
-11.0437
0
VERTEX
8
PLINE001
38
0.0
10
-28.0633
20
-10.6042
0
VERTEX
8
PLINE001
38
0.0
10
-28.2264
20
-10.1621
0
VERTEX
8
PLINE001
38
0.0
10
-28.3826
20
-9.7175
0
VERTEX
8
PLINE001
38
0.0
10
-28.5317
20
-9.2705
0
VERTEX
8
PLINE001
38
0.0
10
-28.6738
20
-8.8212
0
VERTEX
8
PLINE001
38
0.0
10
-28.8088
20
-8.3697
0
VERTEX
8
PLINE001
38
0.0
10
-28.9367
20
-7.9162
0
VERTEX
8
PLINE001
38
0.0
10
-29.0575
20
-7.4607
0
VERTEX
8
PLINE001
38
0.0
10
-29.1711
20
-7.0034
0
VERTEX
8
PLINE001
38
0.0
10
-29.2775
20
-6.5443
0
VERTEX
8
PLINE001
38
0.0
10
-29.3767
20
-6.0836
0
VERTEX
8
PLINE001
38
0.0
10
-29.4686
20
-5.6214
0
VERTEX
8
PLINE001
38
0.0
10
-29.5533
20
-5.1579
0
VERTEX
8
PLINE001
38
0.0
10
-29.6306
20
-4.6930
0
VERTEX
8
PLINE001
38
0.0
10
-29.7007
20
-4.2270
0
VERTEX
8
PLINE001
38
0.0
10
-29.7634
20
-3.7600
0
VERTEX
8
PLINE001
38
0.0
10
-29.8188
20
-3.2920
0
VERTEX
8
PLINE001
38
0.0
10
-29.8669
20
-2.8232
0
VERTEX
8
PLINE001
38
0.0
10
-29.9075
20
-2.3538
0
VERTEX
8
PLINE001
38
0.0
10
-29.9408
20
-1.8837
0
VERTEX
8
PLINE001
38
0.0
10
-29.9667
20
-1.4132
0
VERTEX
8
PLINE001
38
0.0
10
-29.9852
20
-.9423
0
VERTEX
8
PLINE001
38
0.0
10
-29.9963
20
-.4712
0
VERTEX
8
PLINE001
38
0.0
10
-30.0000
20
.0000
0
VERTEX
8
PLINE001
38
0.0
10
-29.9963
20
.4712
0
VERTEX
8
PLINE001
38
0.0
10
-29.9852
20
.9423
0
VERTEX
8
PLINE001
38
0.0
10
-29.9667
20
1.4132
0
VERTEX
8
PLINE001
38
0.0
10
-29.9408
20
1.8837
0
VERTEX
8
PLINE001
38
0.0
10
-29.9075
20
2.3538
0
VERTEX
8
PLINE001
38
0.0
10
-29.8669
20
2.8232
0
VERTEX
8
PLINE001
38
0.0
10
-29.8188
20
3.2920
0
VERTEX
8
PLINE001
38
0.0
10
-29.7634
20
3.7600
0
VERTEX
8
PLINE001
38
0.0
10
-29.7007
20
4.2270
0
VERTEX
8
PLINE001
38
0.0
10
-29.6306
20
4.6930
0
VERTEX
8
PLINE001
38
0.0
10
-29.5533
20
5.1579
0
VERTEX
8
PLINE001
38
0.0
10
-29.4686
20
5.6214
0
VERTEX
8
PLINE001
38
0.0
10
-29.3767
20
6.0836
0
VERTEX
8
PLINE001
38
0.0
10
-29.2775
20
6.5443
0
VERTEX
8
PLINE001
38
0.0
10
-29.1711
20
7.0034
0
VERTEX
8
PLINE001
38
0.0
10
-29.0575
20
7.4607
0
VERTEX
8
PLINE001
38
0.0
10
-28.9367
20
7.9162
0
VERTEX
8
PLINE001
38
0.0
10
-28.8088
20
8.3697
0
VERTEX
8
PLINE001
38
0.0
10
-28.6738
20
8.8212
0
VERTEX
8
PLINE001
38
0.0
10
-28.5317
20
9.2705
0
VERTEX
8
PLINE001
38
0.0
10
-28.3826
20
9.7175
0
VERTEX
8
PLINE001
38
0.0
10
-28.2264
20
10.1621
0
VERTEX
8
PLINE001
38
0.0
10
-28.0633
20
10.6042
0
VERTEX
8
PLINE001
38
0.0
10
-27.8933
20
11.0437
0
VERTEX
8
PLINE001
38
0.0
10
-27.7164
20
11.4805
0
VERTEX
8
PLINE001
38
0.0
10
-27.5326
20
11.9144
0
VERTEX
8
PLINE001
38
0.0
10
-27.3421
20
12.3454
0
VERTEX
8
PLINE001
38
0.0
10
-27.1448
20
12.7734
0
VERTEX
8
PLINE001
38
0.0
10
-26.9408
20
13.1982
0
VERTEX
8
PLINE001
38
0.0
10
-26.7302
20
13.6197
0
VERTEX
8
PLINE001
38
0.0
10
-26.5130
20
14.0379
0
VERTEX
8
PLINE001
38
0.0
10
-26.2892
20
14.4526
0
VERTEX
8
PLINE001
38
0.0
10
-26.0589
20
14.8638
0
VERTEX
8
PLINE001
38
0.0
10
-25.8223
20
15.2712
0
VERTEX
8
PLINE001
38
0.0
10
-25.5792
20
15.6750
0
VERTEX
8
PLINE001
38
0.0
10
-25.3298
20
16.0748
0
VERTEX
8
PLINE001
38
0.0
10
-25.0742
20
16.4707
0
VERTEX
8
PLINE001
38
0.0
10
-24.8124
20
16.8625
0
VERTEX
8
PLINE001
38
0.0
10
-24.5445
20
17.2502
0
VERTEX
8
PLINE001
38
0.0
10
-24.2705
20
17.6336
0
VERTEX
8
PLINE001
38
0.0
10
-23.9905
20
18.0126
0
VERTEX
8
PLINE001
38
0.0
10
-23.7047
20
18.3872
0
VERTEX
8
PLINE001
38
0.0
10
-23.4129
20
18.7573
0
VERTEX
8
PLINE001
38
0.0
10
-23.1154
20
19.1227
0
VERTEX
8
PLINE001
38
0.0
10
-22.8122
20
19.4834
0
VERTEX
8
PLINE001
38
0.0
10
-22.5033
20
19.8394
0
VERTEX
8
PLINE001
38
0.0
10
-22.1889
20
20.1904
0
VERTEX
8
PLINE001
38
0.0
10
-21.8691
20
20.5364
0
VERTEX
8
PLINE001
38
0.0
10
-21.5438
20
20.8774
0
VERTEX
8
PLINE001
38
0.0
10
-21.2132
20
21.2132
0
VERTEX
8
PLINE001
38
0.0
10
-20.8774
20
21.5438
0
VERTEX
8
PLINE001
38
0.0
10
-20.5364
20
21.8691
0
VERTEX
8
PLINE001
38
0.0
10
-20.1904
20
22.1889
0
VERTEX
8
PLINE001
38
0.0
10
-19.8394
20
22.5033
0
VERTEX
8
PLINE001
38
0.0
10
-19.4834
20
22.8122
0
VERTEX
8
PLINE001
38
0.0
10
-19.1227
20
23.1154
0
VERTEX
8
PLINE001
38
0.0
10
-18.7573
20
23.4129
0
VERTEX
8
PLINE001
38
0.0
10
-18.3872
20
23.7047
0
VERTEX
8
PLINE001
38
0.0
10
-18.0126
20
23.9905
0
VERTEX
8
PLINE001
38
0.0
10
-17.6336
20
24.2705
0
VERTEX
8
PLINE001
38
0.0
10
-17.2502
20
24.5445
0
VERTEX
8
PLINE001
38
0.0
10
-16.8625
20
24.8124
0
VERTEX
8
PLINE001
38
0.0
10
-16.4707
20
25.0742
0
VERTEX
8
PLINE001
38
0.0
10
-16.0748
20
25.3298
0
VERTEX
8
PLINE001
38
0.0
10
-15.6750
20
25.5792
0
VERTEX
8
PLINE001
38
0.0
10
-15.2712
20
25.8223
0
VERTEX
8
PLINE001
38
0.0
10
-14.8638
20
26.0589
0
VERTEX
8
PLINE001
38
0.0
10
-14.4526
20
26.2892
0
VERTEX
8
PLINE001
38
0.0
10
-14.0379
20
26.5130
0
VERTEX
8
PLINE001
38
0.0
10
-13.6197
20
26.7302
0
VERTEX
8
PLINE001
38
0.0
10
-13.1982
20
26.9408
0
VERTEX
8
PLINE001
38
0.0
10
-12.7734
20
27.1448
0
VERTEX
8
PLINE001
38
0.0
10
-12.3454
20
27.3421
0
VERTEX
8
PLINE001
38
0.0
10
-11.9144
20
27.5326
0
VERTEX
8
PLINE001
38
0.0
10
-11.4805
20
27.7164
0
VERTEX
8
PLINE001
38
0.0
10
-11.0437
20
27.8933
0
VERTEX
8
PLINE001
38
0.0
10
-10.6042
20
28.0633
0
VERTEX
8
PLINE001
38
0.0
10
-10.1621
20
28.2264
0
VERTEX
8
PLINE001
38
0.0
10
-9.7175
20
28.3826
0
VERTEX
8
PLINE001
38
0.0
10
-9.2705
20
28.5317
0
VERTEX
8
PLINE001
38
0.0
10
-8.8212
20
28.6738
0
VERTEX
8
PLINE001
38
0.0
10
-8.3697
20
28.8088
0
VERTEX
8
PLINE001
38
0.0
10
-7.9162
20
28.9367
0
VERTEX
8
PLINE001
38
0.0
10
-7.4607
20
29.0575
0
VERTEX
8
PLINE001
38
0.0
10
-7.0034
20
29.1711
0
VERTEX
8
PLINE001
38
0.0
10
-6.5443
20
29.2775
0
VERTEX
8
PLINE001
38
0.0
10
-6.0836
20
29.3767
0
VERTEX
8
PLINE001
38
0.0
10
-5.6214
20
29.4686
0
VERTEX
8
PLINE001
38
0.0
10
-5.1579
20
29.5533
0
VERTEX
8
PLINE001
38
0.0
10
-4.6930
20
29.6306
0
VERTEX
8
PLINE001
38
0.0
10
-4.2270
20
29.7007
0
VERTEX
8
PLINE001
38
0.0
10
-3.7600
20
29.7634
0
VERTEX
8
PLINE001
38
0.0
10
-3.2920
20
29.8188
0
VERTEX
8
PLINE001
38
0.0
10
-2.8232
20
29.8669
0
VERTEX
8
PLINE001
38
0.0
10
-2.3538
20
29.9075
0
VERTEX
8
PLINE001
38
0.0
10
-1.8837
20
29.9408
0
VERTEX
8
PLINE001
38
0.0
10
-1.4132
20
29.9667
0
VERTEX
8
PLINE001
38
0.0
10
-.9423
20
29.9852
0
VERTEX
8
PLINE001
38
0.0
10
-.4712
20
29.9963
0
VERTEX
8
PLINE001
38
0.0
10
.0000
20
30.0000
0
VERTEX
8
PLINE001
38
0.0
10
.4712
20
29.9963
0
SEQEND
8
PLINE001
0
POLYLINE
8
PLINE001
38
0.0
66
1
0
VERTEX
8
PLINE001
38
0.0
10
.3141
20
19.9975
0
VERTEX
8
PLINE001
38
0.0
10
.6282
20
19.9901
0
VERTEX
8
PLINE001
38
0.0
10
.9421
20
19.9778
0
VERTEX
8
PLINE001
38
0.0
10
1.2558
20
19.9605
0
VERTEX
8
PLINE001
38
0.0
10
1.5692
20
19.9383
0
VERTEX
8
PLINE001
38
0.0
10
1.8822
20
19.9112
0
VERTEX
8
PLINE001
38
0.0
10
2.1947
20
19.8792
0
VERTEX
8
PLINE001
38
0.0
10
2.5067
20
19.8423
0
VERTEX
8
PLINE001
38
0.0
10
2.8180
20
19.8005
0
VERTEX
8
PLINE001
38
0.0
10
3.1287
20
19.7538
0
VERTEX
8
PLINE001
38
0.0
10
3.4386
20
19.7022
0
VERTEX
8
PLINE001
38
0.0
10
3.7476
20
19.6457
0
VERTEX
8
PLINE001
38
0.0
10
4.0557
20
19.5845
0
VERTEX
8
PLINE001
38
0.0
10
4.3629
20
19.5183
0
VERTEX
8
PLINE001
38
0.0
10
4.6689
20
19.4474
0
VERTEX
8
PLINE001
38
0.0
10
4.9738
20
19.3717
0
VERTEX
8
PLINE001
38
0.0
10
5.2775
20
19.2911
0
VERTEX
8
PLINE001
38
0.0
10
5.5798
20
19.2059
0
VERTEX
8
PLINE001
38
0.0
10
5.8808
20
19.1159
0
VERTEX
8
PLINE001
38
0.0
10
6.1803
20
19.0211
0
VERTEX
8
PLINE001
38
0.0
10
6.4783
20
18.9217
0
VERTEX
8
PLINE001
38
0.0
10
6.7748
20
18.8176
0
VERTEX
8
PLINE001
38
0.0
10
7.0695
20
18.7089
0
VERTEX
8
PLINE001
38
0.0
10
7.3625
20
18.5955
0
VERTEX
8
PLINE001
38
0.0
10
7.6537
20
18.4776
0
VERTEX
8
PLINE001
38
0.0
10
7.9430
20
18.3551
0
VERTEX
8
PLINE001
38
0.0
10
8.2303
20
18.2281
0
VERTEX
8
PLINE001
38
0.0
10
8.5156
20
18.0965
0
VERTEX
8
PLINE001
38
0.0
10
8.7988
20
17.9606
0
VERTEX
8
PLINE001
38
0.0
10
9.0798
20
17.8201
0
VERTEX
8
PLINE001
38
0.0
10
9.3586
20
17.6753
0
VERTEX
8
PLINE001
38
0.0
10
9.6351
20
17.5261
0
VERTEX
8
PLINE001
38
0.0
10
9.9092
20
17.3726
0
VERTEX
8
PLINE001
38
0.0
10
10.1808
20
17.2148
0
VERTEX
8
PLINE001
38
0.0
10
10.4500
20
17.0528
0
VERTEX
8
PLINE001
38
0.0
10
10.7165
20
16.8866
0
VERTEX
8
PLINE001
38
0.0
10
10.9805
20
16.7161
0
VERTEX
8
PLINE001
38
0.0
10
11.2417
20
16.5416
0
VERTEX
8
PLINE001
38
0.0
10
11.5001
20
16.3630
0
VERTEX
8
PLINE001
38
0.0
10
11.7557
20
16.1803
0
VERTEX
8
PLINE001
38
0.0
10
12.0084
20
15.9937
0
VERTEX
8
PLINE001
38
0.0
10
12.2581
20
15.8031
0
VERTEX
8
PLINE001
38
0.0
10
12.5049
20
15.6086
0
VERTEX
8
PLINE001
38
0.0
10
12.7485
20
15.4103
0
VERTEX
8
PLINE001
38
0.0
10
12.9890
20
15.2081
0
VERTEX
8
PLINE001
38
0.0
10
13.2262
20
15.0022
0
VERTEX
8
PLINE001
38
0.0
10
13.4602
20
14.7926
0
VERTEX
8
PLINE001
38
0.0
10
13.6909
20
14.5794
0
VERTEX
8
PLINE001
38
0.0
10
13.9183
20
14.3625
0
VERTEX
8
PLINE001
38
0.0
10
14.1421
20
14.1421
0
VERTEX
8
PLINE001
38
0.0
10
14.3625
20
13.9183
0
VERTEX
8
PLINE001
38
0.0
10
14.5794
20
13.6909
0
VERTEX
8
PLINE001
38
0.0
10
14.7926
20
13.4602
0
VERTEX
8
PLINE001
38
0.0
10
15.0022
20
13.2262
0
VERTEX
8
PLINE001
38
0.0
10
15.2081
20
12.9890
0
VERTEX
8
PLINE001
38
0.0
10
15.4103
20
12.7485
0
VERTEX
8
PLINE001
38
0.0
10
15.6086
20
12.5049
0
VERTEX
8
PLINE001
38
0.0
10
15.8031
20
12.2581
0
VERTEX
8
PLINE001
38
0.0
10
15.9937
20
12.0084
0
VERTEX
8
PLINE001
38
0.0
10
16.1803
20
11.7557
0
VERTEX
8
PLINE001
38
0.0
10
16.3630
20
11.5001
0
VERTEX
8
PLINE001
38
0.0
10
16.5416
20
11.2417
0
VERTEX
8
PLINE001
38
0.0
10
16.7161
20
10.9805
0
VERTEX
8
PLINE001
38
0.0
10
16.8866
20
10.7165
0
VERTEX
8
PLINE001
38
0.0
10
17.0528
20
10.4500
0
VERTEX
8
PLINE001
38
0.0
10
17.2148
20
10.1808
0
VERTEX
8
PLINE001
38
0.0
10
17.3726
20
9.9092
0
VERTEX
8
PLINE001
38
0.0
10
17.5261
20
9.6351
0
VERTEX
8
PLINE001
38
0.0
10
17.6753
20
9.3586
0
VERTEX
8
PLINE001
38
0.0
10
17.8201
20
9.0798
0
VERTEX
8
PLINE001
38
0.0
10
17.9606
20
8.7988
0
VERTEX
8
PLINE001
38
0.0
10
18.0965
20
8.5156
0
VERTEX
8
PLINE001
38
0.0
10
18.2281
20
8.2303
0
VERTEX
8
PLINE001
38
0.0
10
18.3551
20
7.9430
0
VERTEX
8
PLINE001
38
0.0
10
18.4776
20
7.6537
0
VERTEX
8
PLINE001
38
0.0
10
18.5955
20
7.3625
0
VERTEX
8
PLINE001
38
0.0
10
18.7089
20
7.0695
0
VERTEX
8
PLINE001
38
0.0
10
18.8176
20
6.7748
0
VERTEX
8
PLINE001
38
0.0
10
18.9217
20
6.4783
0
VERTEX
8
PLINE001
38
0.0
10
19.0211
20
6.1803
0
VERTEX
8
PLINE001
38
0.0
10
19.1159
20
5.8808
0
VERTEX
8
PLINE001
38
0.0
10
19.2059
20
5.5798
0
VERTEX
8
PLINE001
38
0.0
10
19.2911
20
5.2775
0
VERTEX
8
PLINE001
38
0.0
10
19.3717
20
4.9738
0
VERTEX
8
PLINE001
38
0.0
10
19.4474
20
4.6689
0
VERTEX
8
PLINE001
38
0.0
10
19.5183
20
4.3629
0
VERTEX
8
PLINE001
38
0.0
10
19.5845
20
4.0557
0
VERTEX
8
PLINE001
38
0.0
10
19.6457
20
3.7476
0
VERTEX
8
PLINE001
38
0.0
10
19.7022
20
3.4386
0
VERTEX
8
PLINE001
38
0.0
10
19.7538
20
3.1287
0
VERTEX
8
PLINE001
38
0.0
10
19.8005
20
2.8180
0
VERTEX
8
PLINE001
38
0.0
10
19.8423
20
2.5067
0
VERTEX
8
PLINE001
38
0.0
10
19.8792
20
2.1947
0
VERTEX
8
PLINE001
38
0.0
10
19.9112
20
1.8822
0
VERTEX
8
PLINE001
38
0.0
10
19.9383
20
1.5692
0
VERTEX
8
PLINE001
38
0.0
10
19.9605
20
1.2558
0
VERTEX
8
PLINE001
38
0.0
10
19.9778
20
.9421
0
VERTEX
8
PLINE001
38
0.0
10
19.9901
20
.6282
0
VERTEX
8
PLINE001
38
0.0
10
19.9975
20
.3141
0
VERTEX
8
PLINE001
38
0.0
10
20.0000
20
.0000
0
VERTEX
8
PLINE001
38
0.0
10
19.9975
20
-.3141
0
VERTEX
8
PLINE001
38
0.0
10
19.9901
20
-.6282
0
VERTEX
8
PLINE001
38
0.0
10
19.9778
20
-.9421
0
VERTEX
8
PLINE001
38
0.0
10
19.9605
20
-1.2558
0
VERTEX
8
PLINE001
38
0.0
10
19.9383
20
-1.5692
0
VERTEX
8
PLINE001
38
0.0
10
19.9112
20
-1.8822
0
VERTEX
8
PLINE001
38
0.0
10
19.8792
20
-2.1947
0
VERTEX
8
PLINE001
38
0.0
10
19.8423
20
-2.5067
0
VERTEX
8
PLINE001
38
0.0
10
19.8005
20
-2.8180
0
VERTEX
8
PLINE001
38
0.0
10
19.7538
20
-3.1287
0
VERTEX
8
PLINE001
38
0.0
10
19.7022
20
-3.4386
0
VERTEX
8
PLINE001
38
0.0
10
19.6457
20
-3.7476
0
VERTEX
8
PLINE001
38
0.0
10
19.5845
20
-4.0557
0
VERTEX
8
PLINE001
38
0.0
10
19.5183
20
-4.3629
0
VERTEX
8
PLINE001
38
0.0
10
19.4474
20
-4.6689
0
VERTEX
8
PLINE001
38
0.0
10
19.3717
20
-4.9738
0
VERTEX
8
PLINE001
38
0.0
10
19.2911
20
-5.2775
0
VERTEX
8
PLINE001
38
0.0
10
19.2059
20
-5.5798
0
VERTEX
8
PLINE001
38
0.0
10
19.1159
20
-5.8808
0
VERTEX
8
PLINE001
38
0.0
10
19.0211
20
-6.1803
0
VERTEX
8
PLINE001
38
0.0
10
18.9217
20
-6.4783
0
VERTEX
8
PLINE001
38
0.0
10
18.8176
20
-6.7748
0
VERTEX
8
PLINE001
38
0.0
10
18.7089
20
-7.0695
0
VERTEX
8
PLINE001
38
0.0
10
18.5955
20
-7.3625
0
VERTEX
8
PLINE001
38
0.0
10
18.4776
20
-7.6537
0
VERTEX
8
PLINE001
38
0.0
10
18.3551
20
-7.9430
0
VERTEX
8
PLINE001
38
0.0
10
18.2281
20
-8.2303
0
VERTEX
8
PLINE001
38
0.0
10
18.0965
20
-8.5156
0
VERTEX
8
PLINE001
38
0.0
10
17.9606
20
-8.7988
0
VERTEX
8
PLINE001
38
0.0
10
17.8201
20
-9.0798
0
VERTEX
8
PLINE001
38
0.0
10
17.6753
20
-9.3586
0
VERTEX
8
PLINE001
38
0.0
10
17.5261
20
-9.6351
0
VERTEX
8
PLINE001
38
0.0
10
17.3726
20
-9.9092
0
VERTEX
8
PLINE001
38
0.0
10
17.2148
20
-10.1808
0
VERTEX
8
PLINE001
38
0.0
10
17.0528
20
-10.4500
0
VERTEX
8
PLINE001
38
0.0
10
16.8866
20
-10.7165
0
VERTEX
8
PLINE001
38
0.0
10
16.7161
20
-10.9805
0
VERTEX
8
PLINE001
38
0.0
10
16.5416
20
-11.2417
0
VERTEX
8
PLINE001
38
0.0
10
16.3630
20
-11.5001
0
VERTEX
8
PLINE001
38
0.0
10
16.1803
20
-11.7557
0
VERTEX
8
PLINE001
38
0.0
10
15.9937
20
-12.0084
0
VERTEX
8
PLINE001
38
0.0
10
15.8031
20
-12.2581
0
VERTEX
8
PLINE001
38
0.0
10
15.6086
20
-12.5049
0
VERTEX
8
PLINE001
38
0.0
10
15.4103
20
-12.7485
0
VERTEX
8
PLINE001
38
0.0
10
15.2081
20
-12.9890
0
VERTEX
8
PLINE001
38
0.0
10
15.0022
20
-13.2262
0
VERTEX
8
PLINE001
38
0.0
10
14.7926
20
-13.4602
0
VERTEX
8
PLINE001
38
0.0
10
14.5794
20
-13.6909
0
VERTEX
8
PLINE001
38
0.0
10
14.3625
20
-13.9183
0
VERTEX
8
PLINE001
38
0.0
10
14.1421
20
-14.1421
0
VERTEX
8
PLINE001
38
0.0
10
13.9183
20
-14.3625
0
VERTEX
8
PLINE001
38
0.0
10
13.6909
20
-14.5794
0
VERTEX
8
PLINE001
38
0.0
10
13.4602
20
-14.7926
0
VERTEX
8
PLINE001
38
0.0
10
13.2262
20
-15.0022
0
VERTEX
8
PLINE001
38
0.0
10
12.9890
20
-15.2081
0
VERTEX
8
PLINE001
38
0.0
10
12.7485
20
-15.4103
0
VERTEX
8
PLINE001
38
0.0
10
12.5049
20
-15.6086
0
VERTEX
8
PLINE001
38
0.0
10
12.2581
20
-15.8031
0
VERTEX
8
PLINE001
38
0.0
10
12.0084
20
-15.9937
0
VERTEX
8
PLINE001
38
0.0
10
11.7557
20
-16.1803
0
VERTEX
8
PLINE001
38
0.0
10
11.5001
20
-16.3630
0
VERTEX
8
PLINE001
38
0.0
10
11.2417
20
-16.5416
0
VERTEX
8
PLINE001
38
0.0
10
10.9805
20
-16.7161
0
VERTEX
8
PLINE001
38
0.0
10
10.7165
20
-16.8866
0
VERTEX
8
PLINE001
38
0.0
10
10.4500
20
-17.0528
0
VERTEX
8
PLINE001
38
0.0
10
10.1808
20
-17.2148
0
VERTEX
8
PLINE001
38
0.0
10
9.9092
20
-17.3726
0
VERTEX
8
PLINE001
38
0.0
10
9.6351
20
-17.5261
0
VERTEX
8
PLINE001
38
0.0
10
9.3586
20
-17.6753
0
VERTEX
8
PLINE001
38
0.0
10
9.0798
20
-17.8201
0
VERTEX
8
PLINE001
38
0.0
10
8.7988
20
-17.9606
0
VERTEX
8
PLINE001
38
0.0
10
8.5156
20
-18.0965
0
VERTEX
8
PLINE001
38
0.0
10
8.2303
20
-18.2281
0
VERTEX
8
PLINE001
38
0.0
10
7.9430
20
-18.3551
0
VERTEX
8
PLINE001
38
0.0
10
7.6537
20
-18.4776
0
VERTEX
8
PLINE001
38
0.0
10
7.3625
20
-18.5955
0
VERTEX
8
PLINE001
38
0.0
10
7.0695
20
-18.7089
0
VERTEX
8
PLINE001
38
0.0
10
6.7748
20
-18.8176
0
VERTEX
8
PLINE001
38
0.0
10
6.4783
20
-18.9217
0
VERTEX
8
PLINE001
38
0.0
10
6.1803
20
-19.0211
0
VERTEX
8
PLINE001
38
0.0
10
5.8808
20
-19.1159
0
VERTEX
8
PLINE001
38
0.0
10
5.5798
20
-19.2059
0
VERTEX
8
PLINE001
38
0.0
10
5.2775
20
-19.2911
0
VERTEX
8
PLINE001
38
0.0
10
4.9738
20
-19.3717
0
VERTEX
8
PLINE001
38
0.0
10
4.6689
20
-19.4474
0
VERTEX
8
PLINE001
38
0.0
10
4.3629
20
-19.5183
0
VERTEX
8
PLINE001
38
0.0
10
4.0557
20
-19.5845
0
VERTEX
8
PLINE001
38
0.0
10
3.7476
20
-19.6457
0
VERTEX
8
PLINE001
38
0.0
10
3.4386
20
-19.7022
0
VERTEX
8
PLINE001
38
0.0
10
3.1287
20
-19.7538
0
VERTEX
8
PLINE001
38
0.0
10
2.8180
20
-19.8005
0
VERTEX
8
PLINE001
38
0.0
10
2.5067
20
-19.8423
0
VERTEX
8
PLINE001
38
0.0
10
2.1947
20
-19.8792
0
VERTEX
8
PLINE001
38
0.0
10
1.8822
20
-19.9112
0
VERTEX
8
PLINE001
38
0.0
10
1.5692
20
-19.9383
0
VERTEX
8
PLINE001
38
0.0
10
1.2558
20
-19.9605
0
VERTEX
8
PLINE001
38
0.0
10
.9421
20
-19.9778
0
VERTEX
8
PLINE001
38
0.0
10
.6282
20
-19.9901
0
VERTEX
8
PLINE001
38
0.0
10
.3141
20
-19.9975
0
VERTEX
8
PLINE001
38
0.0
10
.0000
20
-20.0000
0
VERTEX
8
PLINE001
38
0.0
10
-.3141
20
-19.9975
0
VERTEX
8
PLINE001
38
0.0
10
-.6282
20
-19.9901
0
VERTEX
8
PLINE001
38
0.0
10
-.9421
20
-19.9778
0
VERTEX
8
PLINE001
38
0.0
10
-1.2558
20
-19.9605
0
VERTEX
8
PLINE001
38
0.0
10
-1.5692
20
-19.9383
0
VERTEX
8
PLINE001
38
0.0
10
-1.8822
20
-19.9112
0
VERTEX
8
PLINE001
38
0.0
10
-2.1947
20
-19.8792
0
VERTEX
8
PLINE001
38
0.0
10
-2.5067
20
-19.8423
0
VERTEX
8
PLINE001
38
0.0
10
-2.8180
20
-19.8005
0
VERTEX
8
PLINE001
38
0.0
10
-3.1287
20
-19.7538
0
VERTEX
8
PLINE001
38
0.0
10
-3.4386
20
-19.7022
0
VERTEX
8
PLINE001
38
0.0
10
-3.7476
20
-19.6457
0
VERTEX
8
PLINE001
38
0.0
10
-4.0557
20
-19.5845
0
VERTEX
8
PLINE001
38
0.0
10
-4.3629
20
-19.5183
0
VERTEX
8
PLINE001
38
0.0
10
-4.6689
20
-19.4474
0
VERTEX
8
PLINE001
38
0.0
10
-4.9738
20
-19.3717
0
VERTEX
8
PLINE001
38
0.0
10
-5.2775
20
-19.2911
0
VERTEX
8
PLINE001
38
0.0
10
-5.5798
20
-19.2059
0
VERTEX
8
PLINE001
38
0.0
10
-5.8808
20
-19.1159
0
VERTEX
8
PLINE001
38
0.0
10
-6.1803
20
-19.0211
0
VERTEX
8
PLINE001
38
0.0
10
-6.4783
20
-18.9217
0
VERTEX
8
PLINE001
38
0.0
10
-6.7748
20
-18.8176
0
VERTEX
8
PLINE001
38
0.0
10
-7.0695
20
-18.7089
0
VERTEX
8
PLINE001
38
0.0
10
-7.3625
20
-18.5955
0
VERTEX
8
PLINE001
38
0.0
10
-7.6537
20
-18.4776
0
VERTEX
8
PLINE001
38
0.0
10
-7.9430
20
-18.3551
0
VERTEX
8
PLINE001
38
0.0
10
-8.2303
20
-18.2281
0
VERTEX
8
PLINE001
38
0.0
10
-8.5156
20
-18.0965
0
VERTEX
8
PLINE001
38
0.0
10
-8.7988
20
-17.9606
0
VERTEX
8
PLINE001
38
0.0
10
-9.0798
20
-17.8201
0
VERTEX
8
PLINE001
38
0.0
10
-9.3586
20
-17.6753
0
VERTEX
8
PLINE001
38
0.0
10
-9.6351
20
-17.5261
0
VERTEX
8
PLINE001
38
0.0
10
-9.9092
20
-17.3726
0
VERTEX
8
PLINE001
38
0.0
10
-10.1808
20
-17.2148
0
VERTEX
8
PLINE001
38
0.0
10
-10.4500
20
-17.0528
0
VERTEX
8
PLINE001
38
0.0
10
-10.7165
20
-16.8866
0
VERTEX
8
PLINE001
38
0.0
10
-10.9805
20
-16.7161
0
VERTEX
8
PLINE001
38
0.0
10
-11.2417
20
-16.5416
0
VERTEX
8
PLINE001
38
0.0
10
-11.5001
20
-16.3630
0
VERTEX
8
PLINE001
38
0.0
10
-11.7557
20
-16.1803
0
VERTEX
8
PLINE001
38
0.0
10
-12.0084
20
-15.9937
0
VERTEX
8
PLINE001
38
0.0
10
-12.2581
20
-15.8031
0
VERTEX
8
PLINE001
38
0.0
10
-12.5049
20
-15.6086
0
VERTEX
8
PLINE001
38
0.0
10
-12.7485
20
-15.4103
0
VERTEX
8
PLINE001
38
0.0
10
-12.9890
20
-15.2081
0
VERTEX
8
PLINE001
38
0.0
10
-13.2262
20
-15.0022
0
VERTEX
8
PLINE001
38
0.0
10
-13.4602
20
-14.7926
0
VERTEX
8
PLINE001
38
0.0
10
-13.6909
20
-14.5794
0
VERTEX
8
PLINE001
38
0.0
10
-13.9183
20
-14.3625
0
VERTEX
8
PLINE001
38
0.0
10
-14.1421
20
-14.1421
0
VERTEX
8
PLINE001
38
0.0
10
-14.3625
20
-13.9183
0
VERTEX
8
PLINE001
38
0.0
10
-14.5794
20
-13.6909
0
VERTEX
8
PLINE001
38
0.0
10
-14.7926
20
-13.4602
0
VERTEX
8
PLINE001
38
0.0
10
-15.0022
20
-13.2262
0
VERTEX
8
PLINE001
38
0.0
10
-15.2081
20
-12.9890
0
VERTEX
8
PLINE001
38
0.0
10
-15.4103
20
-12.7485
0
VERTEX
8
PLINE001
38
0.0
10
-15.6086
20
-12.5049
0
VERTEX
8
PLINE001
38
0.0
10
-15.8031
20
-12.2581
0
VERTEX
8
PLINE001
38
0.0
10
-15.9937
20
-12.0084
0
VERTEX
8
PLINE001
38
0.0
10
-16.1803
20
-11.7557
0
VERTEX
8
PLINE001
38
0.0
10
-16.3630
20
-11.5001
0
VERTEX
8
PLINE001
38
0.0
10
-16.5416
20
-11.2417
0
VERTEX
8
PLINE001
38
0.0
10
-16.7161
20
-10.9805
0
VERTEX
8
PLINE001
38
0.0
10
-16.8866
20
-10.7165
0
VERTEX
8
PLINE001
38
0.0
10
-17.0528
20
-10.4500
0
VERTEX
8
PLINE001
38
0.0
10
-17.2148
20
-10.1808
0
VERTEX
8
PLINE001
38
0.0
10
-17.3726
20
-9.9092
0
VERTEX
8
PLINE001
38
0.0
10
-17.5261
20
-9.6351
0
VERTEX
8
PLINE001
38
0.0
10
-17.6753
20
-9.3586
0
VERTEX
8
PLINE001
38
0.0
10
-17.8201
20
-9.0798
0
VERTEX
8
PLINE001
38
0.0
10
-17.9606
20
-8.7988
0
VERTEX
8
PLINE001
38
0.0
10
-18.0965
20
-8.5156
0
VERTEX
8
PLINE001
38
0.0
10
-18.2281
20
-8.2303
0
VERTEX
8
PLINE001
38
0.0
10
-18.3551
20
-7.9430
0
VERTEX
8
PLINE001
38
0.0
10
-18.4776
20
-7.6537
0
VERTEX
8
PLINE001
38
0.0
10
-18.5955
20
-7.3625
0
VERTEX
8
PLINE001
38
0.0
10
-18.7089
20
-7.0695
0
VERTEX
8
PLINE001
38
0.0
10
-18.8176
20
-6.7748
0
VERTEX
8
PLINE001
38
0.0
10
-18.9217
20
-6.4783
0
VERTEX
8
PLINE001
38
0.0
10
-19.0211
20
-6.1803
0
VERTEX
8
PLINE001
38
0.0
10
-19.1159
20
-5.8808
0
VERTEX
8
PLINE001
38
0.0
10
-19.2059
20
-5.5798
0
VERTEX
8
PLINE001
38
0.0
10
-19.2911
20
-5.2775
0
VERTEX
8
PLINE001
38
0.0
10
-19.3717
20
-4.9738
0
VERTEX
8
PLINE001
38
0.0
10
-19.4474
20
-4.6689
0
VERTEX
8
PLINE001
38
0.0
10
-19.5183
20
-4.3629
0
VERTEX
8
PLINE001
38
0.0
10
-19.5845
20
-4.0557
0
VERTEX
8
PLINE001
38
0.0
10
-19.6457
20
-3.7476
0
VERTEX
8
PLINE001
38
0.0
10
-19.7022
20
-3.4386
0
VERTEX
8
PLINE001
38
0.0
10
-19.7538
20
-3.1287
0
VERTEX
8
PLINE001
38
0.0
10
-19.8005
20
-2.8180
0
VERTEX
8
PLINE001
38
0.0
10
-19.8423
20
-2.5067
0
VERTEX
8
PLINE001
38
0.0
10
-19.8792
20
-2.1947
0
VERTEX
8
PLINE001
38
0.0
10
-19.9112
20
-1.8822
0
VERTEX
8
PLINE001
38
0.0
10
-19.9383
20
-1.5692
0
VERTEX
8
PLINE001
38
0.0
10
-19.9605
20
-1.2558
0
VERTEX
8
PLINE001
38
0.0
10
-19.9778
20
-.9421
0
VERTEX
8
PLINE001
38
0.0
10
-19.9901
20
-.6282
0
VERTEX
8
PLINE001
38
0.0
10
-19.9975
20
-.3141
0
VERTEX
8
PLINE001
38
0.0
10
-20.0000
20
.0000
0
VERTEX
8
PLINE001
38
0.0
10
-19.9975
20
.3141
0
VERTEX
8
PLINE001
38
0.0
10
-19.9901
20
.6282
0
VERTEX
8
PLINE001
38
0.0
10
-19.9778
20
.9421
0
VERTEX
8
PLINE001
38
0.0
10
-19.9605
20
1.2558
0
VERTEX
8
PLINE001
38
0.0
10
-19.9383
20
1.5692
0
VERTEX
8
PLINE001
38
0.0
10
-19.9112
20
1.8822
0
VERTEX
8
PLINE001
38
0.0
10
-19.8792
20
2.1947
0
VERTEX
8
PLINE001
38
0.0
10
-19.8423
20
2.5067
0
VERTEX
8
PLINE001
38
0.0
10
-19.8005
20
2.8180
0
VERTEX
8
PLINE001
38
0.0
10
-19.7538
20
3.1287
0
VERTEX
8
PLINE001
38
0.0
10
-19.7022
20
3.4386
0
VERTEX
8
PLINE001
38
0.0
10
-19.6457
20
3.7476
0
VERTEX
8
PLINE001
38
0.0
10
-19.5845
20
4.0557
0
VERTEX
8
PLINE001
38
0.0
10
-19.5183
20
4.3629
0
VERTEX
8
PLINE001
38
0.0
10
-19.4474
20
4.6689
0
VERTEX
8
PLINE001
38
0.0
10
-19.3717
20
4.9738
0
VERTEX
8
PLINE001
38
0.0
10
-19.2911
20
5.2775
0
VERTEX
8
PLINE001
38
0.0
10
-19.2059
20
5.5798
0
VERTEX
8
PLINE001
38
0.0
10
-19.1159
20
5.8808
0
VERTEX
8
PLINE001
38
0.0
10
-19.0211
20
6.1803
0
VERTEX
8
PLINE001
38
0.0
10
-18.9217
20
6.4783
0
VERTEX
8
PLINE001
38
0.0
10
-18.8176
20
6.7748
0
VERTEX
8
PLINE001
38
0.0
10
-18.7089
20
7.0695
0
VERTEX
8
PLINE001
38
0.0
10
-18.5955
20
7.3625
0
VERTEX
8
PLINE001
38
0.0
10
-18.4776
20
7.6537
0
VERTEX
8
PLINE001
38
0.0
10
-18.3551
20
7.9430
0
VERTEX
8
PLINE001
38
0.0
10
-18.2281
20
8.2303
0
VERTEX
8
PLINE001
38
0.0
10
-18.0965
20
8.5156
0
VERTEX
8
PLINE001
38
0.0
10
-17.9606
20
8.7988
0
VERTEX
8
PLINE001
38
0.0
10
-17.8201
20
9.0798
0
VERTEX
8
PLINE001
38
0.0
10
-17.6753
20
9.3586
0
VERTEX
8
PLINE001
38
0.0
10
-17.5261
20
9.6351
0
VERTEX
8
PLINE001
38
0.0
10
-17.3726
20
9.9092
0
VERTEX
8
PLINE001
38
0.0
10
-17.2148
20
10.1808
0
VERTEX
8
PLINE001
38
0.0
10
-17.0528
20
10.4500
0
VERTEX
8
PLINE001
38
0.0
10
-16.8866
20
10.7165
0
VERTEX
8
PLINE001
38
0.0
10
-16.7161
20
10.9805
0
VERTEX
8
PLINE001
38
0.0
10
-16.5416
20
11.2417
0
VERTEX
8
PLINE001
38
0.0
10
-16.3630
20
11.5001
0
VERTEX
8
PLINE001
38
0.0
10
-16.1803
20
11.7557
0
VERTEX
8
PLINE001
38
0.0
10
-15.9937
20
12.0084
0
VERTEX
8
PLINE001
38
0.0
10
-15.8031
20
12.2581
0
VERTEX
8
PLINE001
38
0.0
10
-15.6086
20
12.5049
0
VERTEX
8
PLINE001
38
0.0
10
-15.4103
20
12.7485
0
VERTEX
8
PLINE001
38
0.0
10
-15.2081
20
12.9890
0
VERTEX
8
PLINE001
38
0.0
10
-15.0022
20
13.2262
0
VERTEX
8
PLINE001
38
0.0
10
-14.7926
20
13.4602
0
VERTEX
8
PLINE001
38
0.0
10
-14.5794
20
13.6909
0
VERTEX
8
PLINE001
38
0.0
10
-14.3625
20
13.9183
0
VERTEX
8
PLINE001
38
0.0
10
-14.1421
20
14.1421
0
VERTEX
8
PLINE001
38
0.0
10
-13.9183
20
14.3625
0
VERTEX
8
PLINE001
38
0.0
10
-13.6909
20
14.5794
0
VERTEX
8
PLINE001
38
0.0
10
-13.4602
20
14.7926
0
VERTEX
8
PLINE001
38
0.0
10
-13.2262
20
15.0022
0
VERTEX
8
PLINE001
38
0.0
10
-12.9890
20
15.2081
0
VERTEX
8
PLINE001
38
0.0
10
-12.7485
20
15.4103
0
VERTEX
8
PLINE001
38
0.0
10
-12.5049
20
15.6086
0
VERTEX
8
PLINE001
38
0.0
10
-12.2581
20
15.8031
0
VERTEX
8
PLINE001
38
0.0
10
-12.0084
20
15.9937
0
VERTEX
8
PLINE001
38
0.0
10
-11.7557
20
16.1803
0
VERTEX
8
PLINE001
38
0.0
10
-11.5001
20
16.3630
0
VERTEX
8
PLINE001
38
0.0
10
-11.2417
20
16.5416
0
VERTEX
8
PLINE001
38
0.0
10
-10.9805
20
16.7161
0
VERTEX
8
PLINE001
38
0.0
10
-10.7165
20
16.8866
0
VERTEX
8
PLINE001
38
0.0
10
-10.4500
20
17.0528
0
VERTEX
8
PLINE001
38
0.0
10
-10.1808
20
17.2148
0
VERTEX
8
PLINE001
38
0.0
10
-9.9092
20
17.3726
0
VERTEX
8
PLINE001
38
0.0
10
-9.6351
20
17.5261
0
VERTEX
8
PLINE001
38
0.0
10
-9.3586
20
17.6753
0
VERTEX
8
PLINE001
38
0.0
10
-9.0798
20
17.8201
0
VERTEX
8
PLINE001
38
0.0
10
-8.7988
20
17.9606
0
VERTEX
8
PLINE001
38
0.0
10
-8.5156
20
18.0965
0
VERTEX
8
PLINE001
38
0.0
10
-8.2303
20
18.2281
0
VERTEX
8
PLINE001
38
0.0
10
-7.9430
20
18.3551
0
VERTEX
8
PLINE001
38
0.0
10
-7.6537
20
18.4776
0
VERTEX
8
PLINE001
38
0.0
10
-7.3625
20
18.5955
0
VERTEX
8
PLINE001
38
0.0
10
-7.0695
20
18.7089
0
VERTEX
8
PLINE001
38
0.0
10
-6.7748
20
18.8176
0
VERTEX
8
PLINE001
38
0.0
10
-6.4783
20
18.9217
0
VERTEX
8
PLINE001
38
0.0
10
-6.1803
20
19.0211
0
VERTEX
8
PLINE001
38
0.0
10
-5.8808
20
19.1159
0
VERTEX
8
PLINE001
38
0.0
10
-5.5798
20
19.2059
0
VERTEX
8
PLINE001
38
0.0
10
-5.2775
20
19.2911
0
VERTEX
8
PLINE001
38
0.0
10
-4.9738
20
19.3717
0
VERTEX
8
PLINE001
38
0.0
10
-4.6689
20
19.4474
0
VERTEX
8
PLINE001
38
0.0
10
-4.3629
20
19.5183
0
VERTEX
8
PLINE001
38
0.0
10
-4.0557
20
19.5845
0
VERTEX
8
PLINE001
38
0.0
10
-3.7476
20
19.6457
0
VERTEX
8
PLINE001
38
0.0
10
-3.4386
20
19.7022
0
VERTEX
8
PLINE001
38
0.0
10
-3.1287
20
19.7538
0
VERTEX
8
PLINE001
38
0.0
10
-2.8180
20
19.8005
0
VERTEX
8
PLINE001
38
0.0
10
-2.5067
20
19.8423
0
VERTEX
8
PLINE001
38
0.0
10
-2.1947
20
19.8792
0
VERTEX
8
PLINE001
38
0.0
10
-1.8822
20
19.9112
0
VERTEX
8
PLINE001
38
0.0
10
-1.5692
20
19.9383
0
VERTEX
8
PLINE001
38
0.0
10
-1.2558
20
19.9605
0
VERTEX
8
PLINE001
38
0.0
10
-.9421
20
19.9778
0
VERTEX
8
PLINE001
38
0.0
10
-.6282
20
19.9901
0
VERTEX
8
PLINE001
38
0.0
10
-.3141
20
19.9975
0
VERTEX
8
PLINE001
38
0.0
10
.0000
20
20.0000
0
VERTEX
8
PLINE001
38
0.0
10
.3141
20
19.9975
0
SEQEND
8
PLINE001
0
POLYLINE
8
PLINE001
38
0.0
66
1
0
VERTEX
8
PLINE001
38
0.0
10
.1571
20
9.9988
0
VERTEX
8
PLINE001
38
0.0
10
.3141
20
9.9951
0
VERTEX
8
PLINE001
38
0.0
10
.4711
20
9.9889
0
VERTEX
8
PLINE001
38
0.0
10
.6279
20
9.9803
0
VERTEX
8
PLINE001
38
0.0
10
.7846
20
9.9692
0
VERTEX
8
PLINE001
38
0.0
10
.9411
20
9.9556
0
VERTEX
8
PLINE001
38
0.0
10
1.0973
20
9.9396
0
VERTEX
8
PLINE001
38
0.0
10
1.2533
20
9.9211
0
VERTEX
8
PLINE001
38
0.0
10
1.4090
20
9.9002
0
VERTEX
8
PLINE001
38
0.0
10
1.5643
20
9.8769
0
VERTEX
8
PLINE001
38
0.0
10
1.7193
20
9.8511
0
VERTEX
8
PLINE001
38
0.0
10
1.8738
20
9.8229
0
VERTEX
8
PLINE001
38
0.0
10
2.0279
20
9.7922
0
VERTEX
8
PLINE001
38
0.0
10
2.1814
20
9.7592
0
VERTEX
8
PLINE001
38
0.0
10
2.3345
20
9.7237
0
VERTEX
8
PLINE001
38
0.0
10
2.4869
20
9.6858
0
VERTEX
8
PLINE001
38
0.0
10
2.6387
20
9.6456
0
VERTEX
8
PLINE001
38
0.0
10
2.7899
20
9.6029
0
VERTEX
8
PLINE001
38
0.0
10
2.9404
20
9.5579
0
VERTEX
8
PLINE001
38
0.0
10
3.0902
20
9.5106
0
VERTEX
8
PLINE001
38
0.0
10
3.2392
20
9.4609
0
VERTEX
8
PLINE001
38
0.0
10
3.3874
20
9.4088
0
VERTEX
8
PLINE001
38
0.0
10
3.5347
20
9.3544
0
VERTEX
8
PLINE001
38
0.0
10
3.6812
20
9.2978
0
VERTEX
8
PLINE001
38
0.0
10
3.8268
20
9.2388
0
VERTEX
8
PLINE001
38
0.0
10
3.9715
20
9.1775
0
VERTEX
8
PLINE001
38
0.0
10
4.1151
20
9.1140
0
VERTEX
8
PLINE001
38
0.0
10
4.2578
20
9.0483
0
VERTEX
8
PLINE001
38
0.0
10
4.3994
20
8.9803
0
VERTEX
8
PLINE001
38
0.0
10
4.5399
20
8.9101
0
VERTEX
8
PLINE001
38
0.0
10
4.6793
20
8.8377
0
VERTEX
8
PLINE001
38
0.0
10
4.8175
20
8.7631
0
VERTEX
8
PLINE001
38
0.0
10
4.9546
20
8.6863
0
VERTEX
8
PLINE001
38
0.0
10
5.0904
20
8.6074
0
VERTEX
8
PLINE001
38
0.0
10
5.2250
20
8.5264
0
VERTEX
8
PLINE001
38
0.0
10
5.3583
20
8.4433
0
VERTEX
8
PLINE001
38
0.0
10
5.4902
20
8.3581
0
VERTEX
8
PLINE001
38
0.0
10
5.6208
20
8.2708
0
VERTEX
8
PLINE001
38
0.0
10
5.7501
20
8.1815
0
VERTEX
8
PLINE001
38
0.0
10
5.8779
20
8.0902
0
VERTEX
8
PLINE001
38
0.0
10
6.0042
20
7.9968
0
VERTEX
8
PLINE001
38
0.0
10
6.1291
20
7.9016
0
VERTEX
8
PLINE001
38
0.0
10
6.2524
20
7.8043
0
VERTEX
8
PLINE001
38
0.0
10
6.3742
20
7.7051
0
VERTEX
8
PLINE001
38
0.0
10
6.4945
20
7.6041
0
VERTEX
8
PLINE001
38
0.0
10
6.6131
20
7.5011
0
VERTEX
8
PLINE001
38
0.0
10
6.7301
20
7.3963
0
VERTEX
8
PLINE001
38
0.0
10
6.8455
20
7.2897
0
VERTEX
8
PLINE001
38
0.0
10
6.9591
20
7.1813
0
VERTEX
8
PLINE001
38
0.0
10
7.0711
20
7.0711
0
VERTEX
8
PLINE001
38
0.0
10
7.1813
20
6.9591
0
VERTEX
8
PLINE001
38
0.0
10
7.2897
20
6.8455
0
VERTEX
8
PLINE001
38
0.0
10
7.3963
20
6.7301
0
VERTEX
8
PLINE001
38
0.0
10
7.5011
20
6.6131
0
VERTEX
8
PLINE001
38
0.0
10
7.6041
20
6.4945
0
VERTEX
8
PLINE001
38
0.0
10
7.7051
20
6.3742
0
VERTEX
8
PLINE001
38
0.0
10
7.8043
20
6.2524
0
VERTEX
8
PLINE001
38
0.0
10
7.9016
20
6.1291
0
VERTEX
8
PLINE001
38
0.0
10
7.9968
20
6.0042
0
VERTEX
8
PLINE001
38
0.0
10
8.0902
20
5.8779
0
VERTEX
8
PLINE001
38
0.0
10
8.1815
20
5.7501
0
VERTEX
8
PLINE001
38
0.0
10
8.2708
20
5.6208
0
VERTEX
8
PLINE001
38
0.0
10
8.3581
20
5.4902
0
VERTEX
8
PLINE001
38
0.0
10
8.4433
20
5.3583
0
VERTEX
8
PLINE001
38
0.0
10
8.5264
20
5.2250
0
VERTEX
8
PLINE001
38
0.0
10
8.6074
20
5.0904
0
VERTEX
8
PLINE001
38
0.0
10
8.6863
20
4.9546
0
VERTEX
8
PLINE001
38
0.0
10
8.7631
20
4.8175
0
VERTEX
8
PLINE001
38
0.0
10
8.8377
20
4.6793
0
VERTEX
8
PLINE001
38
0.0
10
8.9101
20
4.5399
0
VERTEX
8
PLINE001
38
0.0
10
8.9803
20
4.3994
0
VERTEX
8
PLINE001
38
0.0
10
9.0483
20
4.2578
0
VERTEX
8
PLINE001
38
0.0
10
9.1140
20
4.1151
0
VERTEX
8
PLINE001
38
0.0
10
9.1775
20
3.9715
0
VERTEX
8
PLINE001
38
0.0
10
9.2388
20
3.8268
0
VERTEX
8
PLINE001
38
0.0
10
9.2978
20
3.6812
0
VERTEX
8
PLINE001
38
0.0
10
9.3544
20
3.5347
0
VERTEX
8
PLINE001
38
0.0
10
9.4088
20
3.3874
0
VERTEX
8
PLINE001
38
0.0
10
9.4609
20
3.2392
0
VERTEX
8
PLINE001
38
0.0
10
9.5106
20
3.0902
0
VERTEX
8
PLINE001
38
0.0
10
9.5579
20
2.9404
0
VERTEX
8
PLINE001
38
0.0
10
9.6029
20
2.7899
0
VERTEX
8
PLINE001
38
0.0
10
9.6456
20
2.6387
0
VERTEX
8
PLINE001
38
0.0
10
9.6858
20
2.4869
0
VERTEX
8
PLINE001
38
0.0
10
9.7237
20
2.3345
0
VERTEX
8
PLINE001
38
0.0
10
9.7592
20
2.1814
0
VERTEX
8
PLINE001
38
0.0
10
9.7922
20
2.0279
0
VERTEX
8
PLINE001
38
0.0
10
9.8229
20
1.8738
0
VERTEX
8
PLINE001
38
0.0
10
9.8511
20
1.7193
0
VERTEX
8
PLINE001
38
0.0
10
9.8769
20
1.5643
0
VERTEX
8
PLINE001
38
0.0
10
9.9002
20
1.4090
0
VERTEX
8
PLINE001
38
0.0
10
9.9211
20
1.2533
0
VERTEX
8
PLINE001
38
0.0
10
9.9396
20
1.0973
0
VERTEX
8
PLINE001
38
0.0
10
9.9556
20
.9411
0
VERTEX
8
PLINE001
38
0.0
10
9.9692
20
.7846
0
VERTEX
8
PLINE001
38
0.0
10
9.9803
20
.6279
0
VERTEX
8
PLINE001
38
0.0
10
9.9889
20
.4711
0
VERTEX
8
PLINE001
38
0.0
10
9.9951
20
.3141
0
VERTEX
8
PLINE001
38
0.0
10
9.9988
20
.1571
0
VERTEX
8
PLINE001
38
0.0
10
10.0000
20
.0000
0
VERTEX
8
PLINE001
38
0.0
10
9.9988
20
-.1571
0
VERTEX
8
PLINE001
38
0.0
10
9.9951
20
-.3141
0
VERTEX
8
PLINE001
38
0.0
10
9.9889
20
-.4711
0
VERTEX
8
PLINE001
38
0.0
10
9.9803
20
-.6279
0
VERTEX
8
PLINE001
38
0.0
10
9.9692
20
-.7846
0
VERTEX
8
PLINE001
38
0.0
10
9.9556
20
-.9411
0
VERTEX
8
PLINE001
38
0.0
10
9.9396
20
-1.0973
0
VERTEX
8
PLINE001
38
0.0
10
9.9211
20
-1.2533
0
VERTEX
8
PLINE001
38
0.0
10
9.9002
20
-1.4090
0
VERTEX
8
PLINE001
38
0.0
10
9.8769
20
-1.5643
0
VERTEX
8
PLINE001
38
0.0
10
9.8511
20
-1.7193
0
VERTEX
8
PLINE001
38
0.0
10
9.8229
20
-1.8738
0
VERTEX
8
PLINE001
38
0.0
10
9.7922
20
-2.0279
0
VERTEX
8
PLINE001
38
0.0
10
9.7592
20
-2.1814
0
VERTEX
8
PLINE001
38
0.0
10
9.7237
20
-2.3345
0
VERTEX
8
PLINE001
38
0.0
10
9.6858
20
-2.4869
0
VERTEX
8
PLINE001
38
0.0
10
9.6456
20
-2.6387
0
VERTEX
8
PLINE001
38
0.0
10
9.6029
20
-2.7899
0
VERTEX
8
PLINE001
38
0.0
10
9.5579
20
-2.9404
0
VERTEX
8
PLINE001
38
0.0
10
9.5106
20
-3.0902
0
VERTEX
8
PLINE001
38
0.0
10
9.4609
20
-3.2392
0
VERTEX
8
PLINE001
38
0.0
10
9.4088
20
-3.3874
0
VERTEX
8
PLINE001
38
0.0
10
9.3544
20
-3.5347
0
VERTEX
8
PLINE001
38
0.0
10
9.2978
20
-3.6812
0
VERTEX
8
PLINE001
38
0.0
10
9.2388
20
-3.8268
0
VERTEX
8
PLINE001
38
0.0
10
9.1775
20
-3.9715
0
VERTEX
8
PLINE001
38
0.0
10
9.1140
20
-4.1151
0
VERTEX
8
PLINE001
38
0.0
10
9.0483
20
-4.2578
0
VERTEX
8
PLINE001
38
0.0
10
8.9803
20
-4.3994
0
VERTEX
8
PLINE001
38
0.0
10
8.9101
20
-4.5399
0
VERTEX
8
PLINE001
38
0.0
10
8.8377
20
-4.6793
0
VERTEX
8
PLINE001
38
0.0
10
8.7631
20
-4.8175
0
VERTEX
8
PLINE001
38
0.0
10
8.6863
20
-4.9546
0
VERTEX
8
PLINE001
38
0.0
10
8.6074
20
-5.0904
0
VERTEX
8
PLINE001
38
0.0
10
8.5264
20
-5.2250
0
VERTEX
8
PLINE001
38
0.0
10
8.4433
20
-5.3583
0
VERTEX
8
PLINE001
38
0.0
10
8.3581
20
-5.4902
0
VERTEX
8
PLINE001
38
0.0
10
8.2708
20
-5.6208
0
VERTEX
8
PLINE001
38
0.0
10
8.1815
20
-5.7501
0
VERTEX
8
PLINE001
38
0.0
10
8.0902
20
-5.8779
0
VERTEX
8
PLINE001
38
0.0
10
7.9968
20
-6.0042
0
VERTEX
8
PLINE001
38
0.0
10
7.9016
20
-6.1291
0
VERTEX
8
PLINE001
38
0.0
10
7.8043
20
-6.2524
0
VERTEX
8
PLINE001
38
0.0
10
7.7051
20
-6.3742
0
VERTEX
8
PLINE001
38
0.0
10
7.6041
20
-6.4945
0
VERTEX
8
PLINE001
38
0.0
10
7.5011
20
-6.6131
0
VERTEX
8
PLINE001
38
0.0
10
7.3963
20
-6.7301
0
VERTEX
8
PLINE001
38
0.0
10
7.2897
20
-6.8455
0
VERTEX
8
PLINE001
38
0.0
10
7.1813
20
-6.9591
0
VERTEX
8
PLINE001
38
0.0
10
7.0711
20
-7.0711
0
VERTEX
8
PLINE001
38
0.0
10
6.9591
20
-7.1813
0
VERTEX
8
PLINE001
38
0.0
10
6.8455
20
-7.2897
0
VERTEX
8
PLINE001
38
0.0
10
6.7301
20
-7.3963
0
VERTEX
8
PLINE001
38
0.0
10
6.6131
20
-7.5011
0
VERTEX
8
PLINE001
38
0.0
10
6.4945
20
-7.6041
0
VERTEX
8
PLINE001
38
0.0
10
6.3742
20
-7.7051
0
VERTEX
8
PLINE001
38
0.0
10
6.2524
20
-7.8043
0
VERTEX
8
PLINE001
38
0.0
10
6.1291
20
-7.9016
0
VERTEX
8
PLINE001
38
0.0
10
6.0042
20
-7.9968
0
VERTEX
8
PLINE001
38
0.0
10
5.8779
20
-8.0902
0
VERTEX
8
PLINE001
38
0.0
10
5.7501
20
-8.1815
0
VERTEX
8
PLINE001
38
0.0
10
5.6208
20
-8.2708
0
VERTEX
8
PLINE001
38
0.0
10
5.4902
20
-8.3581
0
VERTEX
8
PLINE001
38
0.0
10
5.3583
20
-8.4433
0
VERTEX
8
PLINE001
38
0.0
10
5.2250
20
-8.5264
0
VERTEX
8
PLINE001
38
0.0
10
5.0904
20
-8.6074
0
VERTEX
8
PLINE001
38
0.0
10
4.9546
20
-8.6863
0
VERTEX
8
PLINE001
38
0.0
10
4.8175
20
-8.7631
0
VERTEX
8
PLINE001
38
0.0
10
4.6793
20
-8.8377
0
VERTEX
8
PLINE001
38
0.0
10
4.5399
20
-8.9101
0
VERTEX
8
PLINE001
38
0.0
10
4.3994
20
-8.9803
0
VERTEX
8
PLINE001
38
0.0
10
4.2578
20
-9.0483
0
VERTEX
8
PLINE001
38
0.0
10
4.1151
20
-9.1140
0
VERTEX
8
PLINE001
38
0.0
10
3.9715
20
-9.1775
0
VERTEX
8
PLINE001
38
0.0
10
3.8268
20
-9.2388
0
VERTEX
8
PLINE001
38
0.0
10
3.6812
20
-9.2978
0
VERTEX
8
PLINE001
38
0.0
10
3.5347
20
-9.3544
0
VERTEX
8
PLINE001
38
0.0
10
3.3874
20
-9.4088
0
VERTEX
8
PLINE001
38
0.0
10
3.2392
20
-9.4609
0
VERTEX
8
PLINE001
38
0.0
10
3.0902
20
-9.5106
0
VERTEX
8
PLINE001
38
0.0
10
2.9404
20
-9.5579
0
VERTEX
8
PLINE001
38
0.0
10
2.7899
20
-9.6029
0
VERTEX
8
PLINE001
38
0.0
10
2.6387
20
-9.6456
0
VERTEX
8
PLINE001
38
0.0
10
2.4869
20
-9.6858
0
VERTEX
8
PLINE001
38
0.0
10
2.3345
20
-9.7237
0
VERTEX
8
PLINE001
38
0.0
10
2.1814
20
-9.7592
0
VERTEX
8
PLINE001
38
0.0
10
2.0279
20
-9.7922
0
VERTEX
8
PLINE001
38
0.0
10
1.8738
20
-9.8229
0
VERTEX
8
PLINE001
38
0.0
10
1.7193
20
-9.8511
0
VERTEX
8
PLINE001
38
0.0
10
1.5643
20
-9.8769
0
VERTEX
8
PLINE001
38
0.0
10
1.4090
20
-9.9002
0
VERTEX
8
PLINE001
38
0.0
10
1.2533
20
-9.9211
0
VERTEX
8
PLINE001
38
0.0
10
1.0973
20
-9.9396
0
VERTEX
8
PLINE001
38
0.0
10
.9411
20
-9.9556
0
VERTEX
8
PLINE001
38
0.0
10
.7846
20
-9.9692
0
VERTEX
8
PLINE001
38
0.0
10
.6279
20
-9.9803
0
VERTEX
8
PLINE001
38
0.0
10
.4711
20
-9.9889
0
VERTEX
8
PLINE001
38
0.0
10
.3141
20
-9.9951
0
VERTEX
8
PLINE001
38
0.0
10
.1571
20
-9.9988
0
VERTEX
8
PLINE001
38
0.0
10
.0000
20
-10.0000
0
VERTEX
8
PLINE001
38
0.0
10
-.1571
20
-9.9988
0
VERTEX
8
PLINE001
38
0.0
10
-.3141
20
-9.9951
0
VERTEX
8
PLINE001
38
0.0
10
-.4711
20
-9.9889
0
VERTEX
8
PLINE001
38
0.0
10
-.6279
20
-9.9803
0
VERTEX
8
PLINE001
38
0.0
10
-.7846
20
-9.9692
0
VERTEX
8
PLINE001
38
0.0
10
-.9411
20
-9.9556
0
VERTEX
8
PLINE001
38
0.0
10
-1.0973
20
-9.9396
0
VERTEX
8
PLINE001
38
0.0
10
-1.2533
20
-9.9211
0
VERTEX
8
PLINE001
38
0.0
10
-1.4090
20
-9.9002
0
VERTEX
8
PLINE001
38
0.0
10
-1.5643
20
-9.8769
0
VERTEX
8
PLINE001
38
0.0
10
-1.7193
20
-9.8511
0
VERTEX
8
PLINE001
38
0.0
10
-1.8738
20
-9.8229
0
VERTEX
8
PLINE001
38
0.0
10
-2.0279
20
-9.7922
0
VERTEX
8
PLINE001
38
0.0
10
-2.1814
20
-9.7592
0
VERTEX
8
PLINE001
38
0.0
10
-2.3345
20
-9.7237
0
VERTEX
8
PLINE001
38
0.0
10
-2.4869
20
-9.6858
0
VERTEX
8
PLINE001
38
0.0
10
-2.6387
20
-9.6456
0
VERTEX
8
PLINE001
38
0.0
10
-2.7899
20
-9.6029
0
VERTEX
8
PLINE001
38
0.0
10
-2.9404
20
-9.5579
0
VERTEX
8
PLINE001
38
0.0
10
-3.0902
20
-9.5106
0
VERTEX
8
PLINE001
38
0.0
10
-3.2392
20
-9.4609
0
VERTEX
8
PLINE001
38
0.0
10
-3.3874
20
-9.4088
0
VERTEX
8
PLINE001
38
0.0
10
-3.5347
20
-9.3544
0
VERTEX
8
PLINE001
38
0.0
10
-3.6812
20
-9.2978
0
VERTEX
8
PLINE001
38
0.0
10
-3.8268
20
-9.2388
0
VERTEX
8
PLINE001
38
0.0
10
-3.9715
20
-9.1775
0
VERTEX
8
PLINE001
38
0.0
10
-4.1151
20
-9.1140
0
VERTEX
8
PLINE001
38
0.0
10
-4.2578
20
-9.0483
0
VERTEX
8
PLINE001
38
0.0
10
-4.3994
20
-8.9803
0
VERTEX
8
PLINE001
38
0.0
10
-4.5399
20
-8.9101
0
VERTEX
8
PLINE001
38
0.0
10
-4.6793
20
-8.8377
0
VERTEX
8
PLINE001
38
0.0
10
-4.8175
20
-8.7631
0
VERTEX
8
PLINE001
38
0.0
10
-4.9546
20
-8.6863
0
VERTEX
8
PLINE001
38
0.0
10
-5.0904
20
-8.6074
0
VERTEX
8
PLINE001
38
0.0
10
-5.2250
20
-8.5264
0
VERTEX
8
PLINE001
38
0.0
10
-5.3583
20
-8.4433
0
VERTEX
8
PLINE001
38
0.0
10
-5.4902
20
-8.3581
0
VERTEX
8
PLINE001
38
0.0
10
-5.6208
20
-8.2708
0
VERTEX
8
PLINE001
38
0.0
10
-5.7501
20
-8.1815
0
VERTEX
8
PLINE001
38
0.0
10
-5.8779
20
-8.0902
0
VERTEX
8
PLINE001
38
0.0
10
-6.0042
20
-7.9968
0
VERTEX
8
PLINE001
38
0.0
10
-6.1291
20
-7.9016
0
VERTEX
8
PLINE001
38
0.0
10
-6.2524
20
-7.8043
0
VERTEX
8
PLINE001
38
0.0
10
-6.3742
20
-7.7051
0
VERTEX
8
PLINE001
38
0.0
10
-6.4945
20
-7.6041
0
VERTEX
8
PLINE001
38
0.0
10
-6.6131
20
-7.5011
0
VERTEX
8
PLINE001
38
0.0
10
-6.7301
20
-7.3963
0
VERTEX
8
PLINE001
38
0.0
10
-6.8455
20
-7.2897
0
VERTEX
8
PLINE001
38
0.0
10
-6.9591
20
-7.1813
0
VERTEX
8
PLINE001
38
0.0
10
-7.0711
20
-7.0711
0
VERTEX
8
PLINE001
38
0.0
10
-7.1813
20
-6.9591
0
VERTEX
8
PLINE001
38
0.0
10
-7.2897
20
-6.8455
0
VERTEX
8
PLINE001
38
0.0
10
-7.3963
20
-6.7301
0
VERTEX
8
PLINE001
38
0.0
10
-7.5011
20
-6.6131
0
VERTEX
8
PLINE001
38
0.0
10
-7.6041
20
-6.4945
0
VERTEX
8
PLINE001
38
0.0
10
-7.7051
20
-6.3742
0
VERTEX
8
PLINE001
38
0.0
10
-7.8043
20
-6.2524
0
VERTEX
8
PLINE001
38
0.0
10
-7.9016
20
-6.1291
0
VERTEX
8
PLINE001
38
0.0
10
-7.9968
20
-6.0042
0
VERTEX
8
PLINE001
38
0.0
10
-8.0902
20
-5.8779
0
VERTEX
8
PLINE001
38
0.0
10
-8.1815
20
-5.7501
0
VERTEX
8
PLINE001
38
0.0
10
-8.2708
20
-5.6208
0
VERTEX
8
PLINE001
38
0.0
10
-8.3581
20
-5.4902
0
VERTEX
8
PLINE001
38
0.0
10
-8.4433
20
-5.3583
0
VERTEX
8
PLINE001
38
0.0
10
-8.5264
20
-5.2250
0
VERTEX
8
PLINE001
38
0.0
10
-8.6074
20
-5.0904
0
VERTEX
8
PLINE001
38
0.0
10
-8.6863
20
-4.9546
0
VERTEX
8
PLINE001
38
0.0
10
-8.7631
20
-4.8175
0
VERTEX
8
PLINE001
38
0.0
10
-8.8377
20
-4.6793
0
VERTEX
8
PLINE001
38
0.0
10
-8.9101
20
-4.5399
0
VERTEX
8
PLINE001
38
0.0
10
-8.9803
20
-4.3994
0
VERTEX
8
PLINE001
38
0.0
10
-9.0483
20
-4.2578
0
VERTEX
8
PLINE001
38
0.0
10
-9.1140
20
-4.1151
0
VERTEX
8
PLINE001
38
0.0
10
-9.1775
20
-3.9715
0
VERTEX
8
PLINE001
38
0.0
10
-9.2388
20
-3.8268
0
VERTEX
8
PLINE001
38
0.0
10
-9.2978
20
-3.6812
0
VERTEX
8
PLINE001
38
0.0
10
-9.3544
20
-3.5347
0
VERTEX
8
PLINE001
38
0.0
10
-9.4088
20
-3.3874
0
VERTEX
8
PLINE001
38
0.0
10
-9.4609
20
-3.2392
0
VERTEX
8
PLINE001
38
0.0
10
-9.5106
20
-3.0902
0
VERTEX
8
PLINE001
38
0.0
10
-9.5579
20
-2.9404
0
VERTEX
8
PLINE001
38
0.0
10
-9.6029
20
-2.7899
0
VERTEX
8
PLINE001
38
0.0
10
-9.6456
20
-2.6387
0
VERTEX
8
PLINE001
38
0.0
10
-9.6858
20
-2.4869
0
VERTEX
8
PLINE001
38
0.0
10
-9.7237
20
-2.3345
0
VERTEX
8
PLINE001
38
0.0
10
-9.7592
20
-2.1814
0
VERTEX
8
PLINE001
38
0.0
10
-9.7922
20
-2.0279
0
VERTEX
8
PLINE001
38
0.0
10
-9.8229
20
-1.8738
0
VERTEX
8
PLINE001
38
0.0
10
-9.8511
20
-1.7193
0
VERTEX
8
PLINE001
38
0.0
10
-9.8769
20
-1.5643
0
VERTEX
8
PLINE001
38
0.0
10
-9.9002
20
-1.4090
0
VERTEX
8
PLINE001
38
0.0
10
-9.9211
20
-1.2533
0
VERTEX
8
PLINE001
38
0.0
10
-9.9396
20
-1.0973
0
VERTEX
8
PLINE001
38
0.0
10
-9.9556
20
-.9411
0
VERTEX
8
PLINE001
38
0.0
10
-9.9692
20
-.7846
0
VERTEX
8
PLINE001
38
0.0
10
-9.9803
20
-.6279
0
VERTEX
8
PLINE001
38
0.0
10
-9.9889
20
-.4711
0
VERTEX
8
PLINE001
38
0.0
10
-9.9951
20
-.3141
0
VERTEX
8
PLINE001
38
0.0
10
-9.9988
20
-.1571
0
VERTEX
8
PLINE001
38
0.0
10
-10.0000
20
.0000
0
VERTEX
8
PLINE001
38
0.0
10
-9.9988
20
.1571
0
VERTEX
8
PLINE001
38
0.0
10
-9.9951
20
.3141
0
VERTEX
8
PLINE001
38
0.0
10
-9.9889
20
.4711
0
VERTEX
8
PLINE001
38
0.0
10
-9.9803
20
.6279
0
VERTEX
8
PLINE001
38
0.0
10
-9.9692
20
.7846
0
VERTEX
8
PLINE001
38
0.0
10
-9.9556
20
.9411
0
VERTEX
8
PLINE001
38
0.0
10
-9.9396
20
1.0973
0
VERTEX
8
PLINE001
38
0.0
10
-9.9211
20
1.2533
0
VERTEX
8
PLINE001
38
0.0
10
-9.9002
20
1.4090
0
VERTEX
8
PLINE001
38
0.0
10
-9.8769
20
1.5643
0
VERTEX
8
PLINE001
38
0.0
10
-9.8511
20
1.7193
0
VERTEX
8
PLINE001
38
0.0
10
-9.8229
20
1.8738
0
VERTEX
8
PLINE001
38
0.0
10
-9.7922
20
2.0279
0
VERTEX
8
PLINE001
38
0.0
10
-9.7592
20
2.1814
0
VERTEX
8
PLINE001
38
0.0
10
-9.7237
20
2.3345
0
VERTEX
8
PLINE001
38
0.0
10
-9.6858
20
2.4869
0
VERTEX
8
PLINE001
38
0.0
10
-9.6456
20
2.6387
0
VERTEX
8
PLINE001
38
0.0
10
-9.6029
20
2.7899
0
VERTEX
8
PLINE001
38
0.0
10
-9.5579
20
2.9404
0
VERTEX
8
PLINE001
38
0.0
10
-9.5106
20
3.0902
0
VERTEX
8
PLINE001
38
0.0
10
-9.4609
20
3.2392
0
VERTEX
8
PLINE001
38
0.0
10
-9.4088
20
3.3874
0
VERTEX
8
PLINE001
38
0.0
10
-9.3544
20
3.5347
0
VERTEX
8
PLINE001
38
0.0
10
-9.2978
20
3.6812
0
VERTEX
8
PLINE001
38
0.0
10
-9.2388
20
3.8268
0
VERTEX
8
PLINE001
38
0.0
10
-9.1775
20
3.9715
0
VERTEX
8
PLINE001
38
0.0
10
-9.1140
20
4.1151
0
VERTEX
8
PLINE001
38
0.0
10
-9.0483
20
4.2578
0
VERTEX
8
PLINE001
38
0.0
10
-8.9803
20
4.3994
0
VERTEX
8
PLINE001
38
0.0
10
-8.9101
20
4.5399
0
VERTEX
8
PLINE001
38
0.0
10
-8.8377
20
4.6793
0
VERTEX
8
PLINE001
38
0.0
10
-8.7631
20
4.8175
0
VERTEX
8
PLINE001
38
0.0
10
-8.6863
20
4.9546
0
VERTEX
8
PLINE001
38
0.0
10
-8.6074
20
5.0904
0
VERTEX
8
PLINE001
38
0.0
10
-8.5264
20
5.2250
0
VERTEX
8
PLINE001
38
0.0
10
-8.4433
20
5.3583
0
VERTEX
8
PLINE001
38
0.0
10
-8.3581
20
5.4902
0
VERTEX
8
PLINE001
38
0.0
10
-8.2708
20
5.6208
0
VERTEX
8
PLINE001
38
0.0
10
-8.1815
20
5.7501
0
VERTEX
8
PLINE001
38
0.0
10
-8.0902
20
5.8779
0
VERTEX
8
PLINE001
38
0.0
10
-7.9968
20
6.0042
0
VERTEX
8
PLINE001
38
0.0
10
-7.9016
20
6.1291
0
VERTEX
8
PLINE001
38
0.0
10
-7.8043
20
6.2524
0
VERTEX
8
PLINE001
38
0.0
10
-7.7051
20
6.3742
0
VERTEX
8
PLINE001
38
0.0
10
-7.6041
20
6.4945
0
VERTEX
8
PLINE001
38
0.0
10
-7.5011
20
6.6131
0
VERTEX
8
PLINE001
38
0.0
10
-7.3963
20
6.7301
0
VERTEX
8
PLINE001
38
0.0
10
-7.2897
20
6.8455
0
VERTEX
8
PLINE001
38
0.0
10
-7.1813
20
6.9591
0
VERTEX
8
PLINE001
38
0.0
10
-7.0711
20
7.0711
0
VERTEX
8
PLINE001
38
0.0
10
-6.9591
20
7.1813
0
VERTEX
8
PLINE001
38
0.0
10
-6.8455
20
7.2897
0
VERTEX
8
PLINE001
38
0.0
10
-6.7301
20
7.3963
0
VERTEX
8
PLINE001
38
0.0
10
-6.6131
20
7.5011
0
VERTEX
8
PLINE001
38
0.0
10
-6.4945
20
7.6041
0
VERTEX
8
PLINE001
38
0.0
10
-6.3742
20
7.7051
0
VERTEX
8
PLINE001
38
0.0
10
-6.2524
20
7.8043
0
VERTEX
8
PLINE001
38
0.0
10
-6.1291
20
7.9016
0
VERTEX
8
PLINE001
38
0.0
10
-6.0042
20
7.9968
0
VERTEX
8
PLINE001
38
0.0
10
-5.8779
20
8.0902
0
VERTEX
8
PLINE001
38
0.0
10
-5.7501
20
8.1815
0
VERTEX
8
PLINE001
38
0.0
10
-5.6208
20
8.2708
0
VERTEX
8
PLINE001
38
0.0
10
-5.4902
20
8.3581
0
VERTEX
8
PLINE001
38
0.0
10
-5.3583
20
8.4433
0
VERTEX
8
PLINE001
38
0.0
10
-5.2250
20
8.5264
0
VERTEX
8
PLINE001
38
0.0
10
-5.0904
20
8.6074
0
VERTEX
8
PLINE001
38
0.0
10
-4.9546
20
8.6863
0
VERTEX
8
PLINE001
38
0.0
10
-4.8175
20
8.7631
0
VERTEX
8
PLINE001
38
0.0
10
-4.6793
20
8.8377
0
VERTEX
8
PLINE001
38
0.0
10
-4.5399
20
8.9101
0
VERTEX
8
PLINE001
38
0.0
10
-4.3994
20
8.9803
0
VERTEX
8
PLINE001
38
0.0
10
-4.2578
20
9.0483
0
VERTEX
8
PLINE001
38
0.0
10
-4.1151
20
9.1140
0
VERTEX
8
PLINE001
38
0.0
10
-3.9715
20
9.1775
0
VERTEX
8
PLINE001
38
0.0
10
-3.8268
20
9.2388
0
VERTEX
8
PLINE001
38
0.0
10
-3.6812
20
9.2978
0
VERTEX
8
PLINE001
38
0.0
10
-3.5347
20
9.3544
0
VERTEX
8
PLINE001
38
0.0
10
-3.3874
20
9.4088
0
VERTEX
8
PLINE001
38
0.0
10
-3.2392
20
9.4609
0
VERTEX
8
PLINE001
38
0.0
10
-3.0902
20
9.5106
0
VERTEX
8
PLINE001
38
0.0
10
-2.9404
20
9.5579
0
VERTEX
8
PLINE001
38
0.0
10
-2.7899
20
9.6029
0
VERTEX
8
PLINE001
38
0.0
10
-2.6387
20
9.6456
0
VERTEX
8
PLINE001
38
0.0
10
-2.4869
20
9.6858
0
VERTEX
8
PLINE001
38
0.0
10
-2.3345
20
9.7237
0
VERTEX
8
PLINE001
38
0.0
10
-2.1814
20
9.7592
0
VERTEX
8
PLINE001
38
0.0
10
-2.0279
20
9.7922
0
VERTEX
8
PLINE001
38
0.0
10
-1.8738
20
9.8229
0
VERTEX
8
PLINE001
38
0.0
10
-1.7193
20
9.8511
0
VERTEX
8
PLINE001
38
0.0
10
-1.5643
20
9.8769
0
VERTEX
8
PLINE001
38
0.0
10
-1.4090
20
9.9002
0
VERTEX
8
PLINE001
38
0.0
10
-1.2533
20
9.9211
0
VERTEX
8
PLINE001
38
0.0
10
-1.0973
20
9.9396
0
VERTEX
8
PLINE001
38
0.0
10
-.9411
20
9.9556
0
VERTEX
8
PLINE001
38
0.0
10
-.7846
20
9.9692
0
VERTEX
8
PLINE001
38
0.0
10
-.6279
20
9.9803
0
VERTEX
8
PLINE001
38
0.0
10
-.4711
20
9.9889
0
VERTEX
8
PLINE001
38
0.0
10
-.3141
20
9.9951
0
VERTEX
8
PLINE001
38
0.0
10
-.1571
20
9.9988
0
VERTEX
8
PLINE001
38
0.0
10
.0000
20
10.0000
0
VERTEX
8
PLINE001
38
0.0
10
.1571
20
9.9988
0
SEQEND
8
PLINE001
0
TEXT
8
TEXT001
38
0.0
10
-2.2500
20
53.0000
40
5.0000
1
N
0
TEXT
8
TEXT001
38
0.0
10
-2.2500
20
-58.0000
40
5.0000
1
S
0
TEXT
8
TEXT001
38
0.0
10
53.0000
20
-2.5000
40
5.0000
1
O
0
TEXT
8
TEXT001
38
0.0
10
-55.2500
20
-2.5000
40
5.0000
1
W
0
POLYLINE
8
PLINE002
38
0.0
66
1
0
VERTEX
8
PLINE002
38
0.0
10
.0000
20
46.2543
0
VERTEX
8
PLINE002
38
0.0
10
1.6160
20
46.2760
0
VERTEX
8
PLINE002
38
0.0
10
3.2356
20
46.2712
0
VERTEX
8
PLINE002
38
0.0
10
4.8600
20
46.2396
0
VERTEX
8
PLINE002
38
0.0
10
6.4767
20
46.0838
0
VERTEX
8
PLINE002
38
0.0
10
8.0914
20
45.8885
0
VERTEX
8
PLINE002
38
0.0
10
9.7021
20
45.6447
0
VERTEX
8
PLINE002
38
0.0
10
11.3170
20
45.3899
0
VERTEX
8
PLINE002
38
0.0
10
12.9180
20
45.0505
0
VERTEX
8
PLINE002
38
0.0
10
14.4858
20
44.5828
0
VERTEX
8
PLINE002
38
0.0
10
16.0230
20
44.0228
0
VERTEX
8
PLINE002
38
0.0
10
17.5016
20
43.3179
0
VERTEX
8
PLINE002
38
0.0
10
18.9379
20
42.5352
0
VERTEX
8
PLINE002
38
0.0
10
20.3373
20
41.6976
0
VERTEX
8
PLINE002
38
0.0
10
21.7023
20
40.8160
0
VERTEX
8
PLINE002
38
0.0
10
23.0051
20
39.8460
0
VERTEX
8
PLINE002
38
0.0
10
24.2534
20
38.8135
0
VERTEX
8
PLINE002
38
0.0
10
25.4399
20
37.7162
0
VERTEX
8
PLINE002
38
0.0
10
26.5311
20
36.5169
0
VERTEX
8
PLINE002
38
0.0
10
27.5101
20
35.2113
0
VERTEX
8
PLINE002
38
0.0
10
28.4277
20
33.8788
0
VERTEX
8
PLINE002
38
0.0
10
29.2997
20
32.5407
0
VERTEX
8
PLINE002
38
0.0
10
30.0876
20
31.1566
0
VERTEX
8
PLINE002
38
0.0
10
30.8168
20
29.7594
0
VERTEX
8
PLINE002
38
0.0
10
31.4702
20
28.3359
0
VERTEX
8
PLINE002
38
0.0
10
32.0445
20
26.8885
0
VERTEX
8
PLINE002
38
0.0
10
32.7383
20
25.5780
0
VERTEX
8
PLINE002
38
0.0
10
33.3949
20
24.2628
0
VERTEX
8
PLINE002
38
0.0
10
34.0086
20
22.9391
0
VERTEX
8
PLINE002
38
0.0
10
34.5240
20
21.5730
0
VERTEX
8
PLINE002
38
0.0
10
35.2716
20
20.3641
0
VERTEX
8
PLINE002
38
0.0
10
35.8202
20
19.0459
0
VERTEX
8
PLINE002
38
0.0
10
36.4019
20
17.7544
0
VERTEX
8
PLINE002
38
0.0
10
37.1033
20
16.5195
0
VERTEX
8
PLINE002
38
0.0
10
37.7688
20
15.2596
0
VERTEX
8
PLINE002
38
0.0
10
38.4139
20
13.9815
0
VERTEX
8
PLINE002
38
0.0
10
39.0400
20
12.6849
0
VERTEX
8
PLINE002
38
0.0
10
39.5902
20
11.3523
0
VERTEX
8
PLINE002
38
0.0
10
39.7824
20
9.9189
0
VERTEX
8
PLINE002
38
0.0
10
39.5870
20
8.4145
0
VERTEX
8
PLINE002
38
0.0
10
39.3752
20
6.9429
0
VERTEX
8
PLINE002
38
0.0
10
39.1117
20
5.4968
0
VERTEX
8
PLINE002
38
0.0
10
38.8226
20
4.0804
0
VERTEX
8
PLINE002
38
0.0
10
38.5193
20
2.6935
0
VERTEX
8
PLINE002
38
0.0
10
38.1820
20
1.3333
0
VERTEX
8
PLINE002
38
0.0
10
38.1058
20
.0000
0
VERTEX
8
PLINE002
38
0.0
10
38.2130
20
-1.3344
0
VERTEX
8
PLINE002
38
0.0
10
38.2334
20
-2.6735
0
VERTEX
8
PLINE002
38
0.0
10
38.1434
20
-4.0090
0
VERTEX
8
PLINE002
38
0.0
10
38.1217
20
-5.3576
0
VERTEX
8
PLINE002
38
0.0
10
38.0612
20
-6.7112
0
VERTEX
8
PLINE002
38
0.0
10
37.9923
20
-8.0755
0
VERTEX
8
PLINE002
38
0.0
10
37.9843
20
-9.4706
0
VERTEX
8
PLINE002
38
0.0
10
37.9059
20
-10.8693
0
VERTEX
8
PLINE002
38
0.0
10
37.7494
20
-12.2655
0
VERTEX
8
PLINE002
38
0.0
10
37.7054
20
-13.7237
0
VERTEX
8
PLINE002
38
0.0
10
37.6384
20
-15.2069
0
VERTEX
8
PLINE002
38
0.0
10
37.5743
20
-16.7292
0
VERTEX
8
PLINE002
38
0.0
10
37.4959
20
-18.2880
0
VERTEX
8
PLINE002
38
0.0
10
37.3742
20
-19.8722
0
VERTEX
8
PLINE002
38
0.0
10
36.8751
20
-21.2898
0
VERTEX
8
PLINE002
38
0.0
10
36.1275
20
-22.5750
0
VERTEX
8
PLINE002
38
0.0
10
35.5344
20
-23.9682
0
VERTEX
8
PLINE002
38
0.0
10
34.8309
20
-25.3061
0
VERTEX
8
PLINE002
38
0.0
10
33.8184
20
-26.4218
0
VERTEX
8
PLINE002
38
0.0
10
32.7414
20
-27.4733
0
VERTEX
8
PLINE002
38
0.0
10
31.5008
20
-28.3635
0
VERTEX
8
PLINE002
38
0.0
10
30.2782
20
-29.2394
0
VERTEX
8
PLINE002
38
0.0
10
29.0596
20
-30.0921
0
VERTEX
8
PLINE002
38
0.0
10
27.8024
20
-30.8777
0
VERTEX
8
PLINE002
38
0.0
10
26.6653
20
-31.7785
0
VERTEX
8
PLINE002
38
0.0
10
25.6487
20
-32.8289
0
VERTEX
8
PLINE002
38
0.0
10
24.6532
20
-33.9322
0
VERTEX
8
PLINE002
38
0.0
10
23.5621
20
-34.9322
0
VERTEX
8
PLINE002
38
0.0
10
22.3103
20
-35.7040
0
VERTEX
8
PLINE002
38
0.0
10
20.9034
20
-36.2057
0
VERTEX
8
PLINE002
38
0.0
10
19.5195
20
-36.7108
0
VERTEX
8
PLINE002
38
0.0
10
18.2067
20
-37.3292
0
VERTEX
8
PLINE002
38
0.0
10
16.8339
20
-37.8096
0
VERTEX
8
PLINE002
38
0.0
10
15.3515
20
-37.9962
0
VERTEX
8
PLINE002
38
0.0
10
13.7386
20
-37.7465
0
VERTEX
8
PLINE002
38
0.0
10
12.1811
20
-37.4896
0
VERTEX
8
PLINE002
38
0.0
10
10.8165
20
-37.7217
0
VERTEX
8
PLINE002
38
0.0
10
9.5385
20
-38.2567
0
VERTEX
8
PLINE002
38
0.0
10
8.3266
20
-39.1735
0
VERTEX
8
PLINE002
38
0.0
10
7.0319
20
-39.8798
0
VERTEX
8
PLINE002
38
0.0
10
5.6924
20
-40.5034
0
VERTEX
8
PLINE002
38
0.0
10
4.3003
20
-40.9143
0
VERTEX
8
PLINE002
38
0.0
10
2.8888
20
-41.3124
0
VERTEX
8
PLINE002
38
0.0
10
1.4549
20
-41.6624
0
VERTEX
8
PLINE002
38
0.0
10
.0000
20
-42.0383
0
VERTEX
8
PLINE002
38
0.0
10
-1.4744
20
-42.2219
0
VERTEX
8
PLINE002
38
0.0
10
-2.9689
20
-42.4572
0
VERTEX
8
PLINE002
38
0.0
10
-4.4612
20
-42.4458
0
VERTEX
8
PLINE002
38
0.0
10
-5.9798
20
-42.5485
0
VERTEX
8
PLINE002
38
0.0
10
-7.5741
20
-42.9547
0
VERTEX
8
PLINE002
38
0.0
10
-9.2219
20
-43.3855
0
VERTEX
8
PLINE002
38
0.0
10
-10.8929
20
-43.6890
0
VERTEX
8
PLINE002
38
0.0
10
-12.6375
20
-44.0723
0
VERTEX
8
PLINE002
38
0.0
10
-14.2106
20
-43.7359
0
VERTEX
8
PLINE002
38
0.0
10
-15.7495
20
-43.2714
0
VERTEX
8
PLINE002
38
0.0
10
-17.2520
20
-42.7001
0
VERTEX
8
PLINE002
38
0.0
10
-18.7507
20
-42.1148
0
VERTEX
8
PLINE002
38
0.0
10
-20.2018
20
-41.4199
0
VERTEX
8
PLINE002
38
0.0
10
-21.6484
20
-40.7146
0
VERTEX
8
PLINE002
38
0.0
10
-22.9830
20
-39.8078
0
VERTEX
8
PLINE002
38
0.0
10
-24.4259
20
-39.0896
0
VERTEX
8
PLINE002
38
0.0
10
-25.9814
20
-38.5190
0
VERTEX
8
PLINE002
38
0.0
10
-27.3072
20
-37.5851
0
VERTEX
8
PLINE002
38
0.0
10
-28.7024
20
-36.7375
0
VERTEX
8
PLINE002
38
0.0
10
-29.8071
20
-35.5227
0
VERTEX
8
PLINE002
38
0.0
10
-31.0967
20
-34.5364
0
VERTEX
8
PLINE002
38
0.0
10
-32.2371
20
-33.3825
0
VERTEX
8
PLINE002
38
0.0
10
-33.4839
20
-32.3350
0
VERTEX
8
PLINE002
38
0.0
10
-34.6537
20
-31.2023
0
VERTEX
8
PLINE002
38
0.0
10
-35.6047
20
-29.8759
0
VERTEX
8
PLINE002
38
0.0
10
-36.4691
20
-28.4928
0
VERTEX
8
PLINE002
38
0.0
10
-37.3804
20
-27.1584
0
VERTEX
8
PLINE002
38
0.0
10
-38.1102
20
-25.7056
0
VERTEX
8
PLINE002
38
0.0
10
-38.5557
20
-24.0923
0
VERTEX
8
PLINE002
38
0.0
10
-39.2339
20
-22.6517
0
VERTEX
8
PLINE002
38
0.0
10
-40.1443
20
-21.3451
0
VERTEX
8
PLINE002
38
0.0
10
-41.0903
20
-20.0411
0
VERTEX
8
PLINE002
38
0.0
10
-41.8458
20
-18.6310
0
VERTEX
8
PLINE002
38
0.0
10
-42.4570
20
-17.1538
0
VERTEX
8
PLINE002
38
0.0
10
-43.1122
20
-15.6916
0
VERTEX
8
PLINE002
38
0.0
10
-43.7980
20
-14.2308
0
VERTEX
8
PLINE002
38
0.0
10
-44.2951
20
-12.7014
0
VERTEX
8
PLINE002
38
0.0
10
-44.8332
20
-11.1782
0
VERTEX
8
PLINE002
38
0.0
10
-45.4325
20
-9.6570
0
VERTEX
8
PLINE002
38
0.0
10
-45.6505
20
-8.0494
0
VERTEX
8
PLINE002
38
0.0
10
-45.7386
20
-6.4281
0
VERTEX
8
PLINE002
38
0.0
10
-46.0705
20
-4.8422
0
VERTEX
8
PLINE002
38
0.0
10
-46.4900
20
-3.2509
0
VERTEX
8
PLINE002
38
0.0
10
-46.5598
20
-1.6259
0
VERTEX
8
PLINE002
38
0.0
10
-46.4133
20
.0000
0
VERTEX
8
PLINE002
38
0.0
10
-46.1461
20
1.6115
0
VERTEX
8
PLINE002
38
0.0
10
-45.8354
20
3.2051
0
VERTEX
8
PLINE002
38
0.0
10
-45.5779
20
4.7904
0
VERTEX
8
PLINE002
38
0.0
10
-45.2695
20
6.3622
0
VERTEX
8
PLINE002
38
0.0
10
-44.9285
20
7.9221
0
VERTEX
8
PLINE002
38
0.0
10
-44.5055
20
9.4599
0
VERTEX
8
PLINE002
38
0.0
10
-43.9801
20
10.9655
0
VERTEX
8
PLINE002
38
0.0
10
-43.4912
20
12.4709
0
VERTEX
8
PLINE002
38
0.0
10
-43.0798
20
13.9975
0
VERTEX
8
PLINE002
38
0.0
10
-42.7359
20
15.5546
0
VERTEX
8
PLINE002
38
0.0
10
-42.5581
20
17.1946
0
VERTEX
8
PLINE002
38
0.0
10
-42.3025
20
18.8343
0
VERTEX
8
PLINE002
38
0.0
10
-41.6293
20
20.3040
0
VERTEX
8
PLINE002
38
0.0
10
-40.6475
20
21.6127
0
VERTEX
8
PLINE002
38
0.0
10
-39.6349
20
22.8832
0
VERTEX
8
PLINE002
38
0.0
10
-38.6281
20
24.1375
0
VERTEX
8
PLINE002
38
0.0
10
-37.6314
20
25.3827
0
VERTEX
8
PLINE002
38
0.0
10
-36.5865
20
26.5816
0
VERTEX
8
PLINE002
38
0.0
10
-35.5695
20
27.7899
0
VERTEX
8
PLINE002
38
0.0
10
-34.5389
20
28.9816
0
VERTEX
8
PLINE002
38
0.0
10
-33.4938
20
30.1580
0
VERTEX
8
PLINE002
38
0.0
10
-32.4116
20
31.2995
0
VERTEX
8
PLINE002
38
0.0
10
-31.3026
20
32.4148
0
VERTEX
8
PLINE002
38
0.0
10
-30.1380
20
33.4716
0
VERTEX
8
PLINE002
38
0.0
10
-28.9252
20
34.4717
0
VERTEX
8
PLINE002
38
0.0
10
-27.6881
20
35.4392
0
VERTEX
8
PLINE002
38
0.0
10
-26.4637
20
36.4242
0
VERTEX
8
PLINE002
38
0.0
10
-25.2361
20
37.4141
0
VERTEX
8
PLINE002
38
0.0
10
-24.0445
20
38.4793
0
VERTEX
8
PLINE002
38
0.0
10
-22.8288
20
39.5407
0
VERTEX
8
PLINE002
38
0.0
10
-21.5861
20
40.5976
0
VERTEX
8
PLINE002
38
0.0
10
-20.3232
20
41.6688
0
VERTEX
8
PLINE002
38
0.0
10
-19.0216
20
42.7232
0
VERTEX
8
PLINE002
38
0.0
10
-17.6430
20
43.6680
0
VERTEX
8
PLINE002
38
0.0
10
-16.1801
20
44.4543
0
VERTEX
8
PLINE002
38
0.0
10
-14.6845
20
45.1943
0
VERTEX
8
PLINE002
38
0.0
10
-13.1788
20
45.9598
0
VERTEX
8
PLINE002
38
0.0
10
-11.5489
20
46.3203
0
VERTEX
8
PLINE002
38
0.0
10
-9.8702
20
46.4356
0
VERTEX
8
PLINE002
38
0.0
10
-8.1962
20
46.4830
0
VERTEX
8
PLINE002
38
0.0
10
-6.5345
20
46.4953
0
VERTEX
8
PLINE002
38
0.0
10
-4.8794
20
46.4245
0
VERTEX
8
PLINE002
38
0.0
10
-3.2408
20
46.3452
0
VERTEX
8
PLINE002
38
0.0
10
-1.6144
20
46.2310
0
VERTEX
8
PLINE002
38
0.0
10
.0000
20
46.2543
0
SEQEND
8
PLINE002
0
LINE
8
LINE002
38
0.0
10
.0000
20
50.0000
11
.0000
21
46.2543
0
LINE
8
LINE002
38
0.0
10
1.7450
20
49.9695
11
1.6160
21
46.2760
0
LINE
8
LINE002
38
0.0
10
3.4878
20
49.8782
11
3.2356
21
46.2712
0
LINE
8
LINE002
38
0.0
10
5.2264
20
49.7261
11
4.8600
21
46.2396
0
LINE
8
LINE002
38
0.0
10
6.9587
20
49.5134
11
6.4767
21
46.0838
0
LINE
8
LINE002
38
0.0
10
8.6824
20
49.2404
11
8.0914
21
45.8885
0
LINE
8
LINE002
38
0.0
10
10.3956
20
48.9074
11
9.7021
21
45.6447
0
LINE
8
LINE002
38
0.0
10
12.0961
20
48.5148
11
11.3170
21
45.3899
0
LINE
8
LINE002
38
0.0
10
13.7819
20
48.0631
11
12.9180
21
45.0505
0
LINE
8
LINE002
38
0.0
10
15.4508
20
47.5528
11
14.4858
21
44.5828
0
LINE
8
LINE002
38
0.0
10
17.1010
20
46.9846
11
16.0230
21
44.0228
0
LINE
8
LINE002
38
0.0
10
18.7303
20
46.3592
11
17.5016
21
43.3179
0
LINE
8
LINE002
38
0.0
10
20.3368
20
45.6773
11
18.9379
21
42.5352
0
LINE
8
LINE002
38
0.0
10
21.9186
20
44.9397
11
20.3373
21
41.6976
0
LINE
8
LINE002
38
0.0
10
23.4736
20
44.1474
11
21.7023
21
40.8160
0
LINE
8
LINE002
38
0.0
10
25.0000
20
43.3013
11
23.0051
21
39.8460
0
LINE
8
LINE002
38
0.0
10
26.4960
20
42.4024
11
24.2534
21
38.8135
0
LINE
8
LINE002
38
0.0
10
27.9596
20
41.4519
11
25.4399
21
37.7162
0
LINE
8
LINE002
38
0.0
10
29.3893
20
40.4509
11
26.5311
21
36.5169
0
LINE
8
LINE002
38
0.0
10
30.7831
20
39.4005
11
27.5101
21
35.2113
0
LINE
8
LINE002
38
0.0
10
32.1394
20
38.3022
11
28.4277
21
33.8788
0
LINE
8
LINE002
38
0.0
10
33.4565
20
37.1572
11
29.2997
21
32.5407
0
LINE
8
LINE002
38
0.0
10
34.7329
20
35.9670
11
30.0876
21
31.1566
0
LINE
8
LINE002
38
0.0
10
35.9670
20
34.7329
11
30.8168
21
29.7594
0
LINE
8
LINE002
38
0.0
10
37.1572
20
33.4565
11
31.4702
21
28.3359
0
LINE
8
LINE002
38
0.0
10
38.3022
20
32.1394
11
32.0445
21
26.8885
0
LINE
8
LINE002
38
0.0
10
39.4005
20
30.7831
11
32.7383
21
25.5780
0
LINE
8
LINE002
38
0.0
10
40.4509
20
29.3893
11
33.3949
21
24.2628
0
LINE
8
LINE002
38
0.0
10
41.4519
20
27.9596
11
34.0086
21
22.9391
0
LINE
8
LINE002
38
0.0
10
42.4024
20
26.4960
11
34.5240
21
21.5730
0
LINE
8
LINE002
38
0.0
10
43.3013
20
25.0000
11
35.2716
21
20.3641
0
LINE
8
LINE002
38
0.0
10
44.1474
20
23.4736
11
35.8202
21
19.0459
0
LINE
8
LINE002
38
0.0
10
44.9397
20
21.9186
11
36.4019
21
17.7544
0
LINE
8
LINE002
38
0.0
10
45.6773
20
20.3368
11
37.1033
21
16.5195
0
LINE
8
LINE002
38
0.0
10
46.3592
20
18.7303
11
37.7688
21
15.2596
0
LINE
8
LINE002
38
0.0
10
46.9846
20
17.1010
11
38.4139
21
13.9815
0
LINE
8
LINE002
38
0.0
10
47.5528
20
15.4508
11
39.0400
21
12.6849
0
LINE
8
LINE002
38
0.0
10
48.0631
20
13.7819
11
39.5902
21
11.3523
0
LINE
8
LINE002
38
0.0
10
48.5148
20
12.0961
11
39.7824
21
9.9189
0
LINE
8
LINE002
38
0.0
10
48.9074
20
10.3956
11
39.5870
21
8.4145
0
LINE
8
LINE002
38
0.0
10
49.2404
20
8.6824
11
39.3752
21
6.9429
0
LINE
8
LINE002
38
0.0
10
49.5134
20
6.9587
11
39.1117
21
5.4968
0
LINE
8
LINE002
38
0.0
10
49.7261
20
5.2264
11
38.8226
21
4.0804
0
LINE
8
LINE002
38
0.0
10
49.8782
20
3.4878
11
38.5193
21
2.6935
0
LINE
8
LINE002
38
0.0
10
49.9695
20
1.7450
11
38.1820
21
1.3333
0
LINE
8
LINE002
38
0.0
10
50.0000
20
.0000
11
38.1058
21
.0000
0
LINE
8
LINE002
38
0.0
10
49.9695
20
-1.7450
11
38.2130
21
-1.3344
0
LINE
8
LINE002
38
0.0
10
49.8782
20
-3.4878
11
38.2334
21
-2.6735
0
LINE
8
LINE002
38
0.0
10
49.7261
20
-5.2264
11
38.1434
21
-4.0090
0
LINE
8
LINE002
38
0.0
10
49.5134
20
-6.9587
11
38.1217
21
-5.3576
0
LINE
8
LINE002
38
0.0
10
49.2404
20
-8.6824
11
38.0612
21
-6.7112
0
LINE
8
LINE002
38
0.0
10
48.9074
20
-10.3956
11
37.9923
21
-8.0755
0
LINE
8
LINE002
38
0.0
10
48.5148
20
-12.0961
11
37.9843
21
-9.4706
0
LINE
8
LINE002
38
0.0
10
48.0631
20
-13.7819
11
37.9059
21
-10.8693
0
LINE
8
LINE002
38
0.0
10
47.5528
20
-15.4508
11
37.7494
21
-12.2655
0
LINE
8
LINE002
38
0.0
10
46.9846
20
-17.1010
11
37.7054
21
-13.7237
0
LINE
8
LINE002
38
0.0
10
46.3592
20
-18.7303
11
37.6384
21
-15.2069
0
LINE
8
LINE002
38
0.0
10
45.6773
20
-20.3368
11
37.5743
21
-16.7292
0
LINE
8
LINE002
38
0.0
10
44.9397
20
-21.9186
11
37.4959
21
-18.2880
0
LINE
8
LINE002
38
0.0
10
44.1474
20
-23.4736
11
37.3742
21
-19.8722
0
LINE
8
LINE002
38
0.0
10
43.3013
20
-25.0000
11
36.8751
21
-21.2898
0
LINE
8
LINE002
38
0.0
10
42.4024
20
-26.4960
11
36.1275
21
-22.5750
0
LINE
8
LINE002
38
0.0
10
41.4519
20
-27.9596
11
35.5344
21
-23.9682
0
LINE
8
LINE002
38
0.0
10
40.4509
20
-29.3893
11
34.8309
21
-25.3061
0
LINE
8
LINE002
38
0.0
10
39.4005
20
-30.7831
11
33.8184
21
-26.4218
0
LINE
8
LINE002
38
0.0
10
38.3022
20
-32.1394
11
32.7414
21
-27.4733
0
LINE
8
LINE002
38
0.0
10
37.1572
20
-33.4565
11
31.5008
21
-28.3635
0
LINE
8
LINE002
38
0.0
10
35.9670
20
-34.7329
11
30.2782
21
-29.2394
0
LINE
8
LINE002
38
0.0
10
34.7329
20
-35.9670
11
29.0596
21
-30.0921
0
LINE
8
LINE002
38
0.0
10
33.4565
20
-37.1572
11
27.8024
21
-30.8777
0
LINE
8
LINE002
38
0.0
10
32.1394
20
-38.3022
11
26.6653
21
-31.7784
0
LINE
8
LINE002
38
0.0
10
30.7831
20
-39.4005
11
25.6487
21
-32.8289
0
LINE
8
LINE002
38
0.0
10
29.3893
20
-40.4509
11
24.6532
21
-33.9322
0
LINE
8
LINE002
38
0.0
10
27.9596
20
-41.4519
11
23.5621
21
-34.9322
0
LINE
8
LINE002
38
0.0
10
26.4960
20
-42.4024
11
22.3103
21
-35.7040
0
LINE
8
LINE002
38
0.0
10
25.0000
20
-43.3013
11
20.9034
21
-36.2057
0
LINE
8
LINE002
38
0.0
10
23.4736
20
-44.1474
11
19.5195
21
-36.7108
0
LINE
8
LINE002
38
0.0
10
21.9186
20
-44.9397
11
18.2067
21
-37.3292
0
LINE
8
LINE002
38
0.0
10
20.3368
20
-45.6773
11
16.8339
21
-37.8096
0
LINE
8
LINE002
38
0.0
10
18.7303
20
-46.3592
11
15.3515
21
-37.9962
0
LINE
8
LINE002
38
0.0
10
17.1010
20
-46.9846
11
13.7386
21
-37.7465
0
LINE
8
LINE002
38
0.0
10
15.4508
20
-47.5528
11
12.1811
21
-37.4896
0
LINE
8
LINE002
38
0.0
10
13.7819
20
-48.0631
11
10.8165
21
-37.7217
0
LINE
8
LINE002
38
0.0
10
12.0961
20
-48.5148
11
9.5385
21
-38.2567
0
LINE
8
LINE002
38
0.0
10
10.3956
20
-48.9074
11
8.3266
21
-39.1735
0
LINE
8
LINE002
38
0.0
10
8.6824
20
-49.2404
11
7.0319
21
-39.8798
0
LINE
8
LINE002
38
0.0
10
6.9587
20
-49.5134
11
5.6924
21
-40.5034
0
LINE
8
LINE002
38
0.0
10
5.2264
20
-49.7261
11
4.3003
21
-40.9143
0
LINE
8
LINE002
38
0.0
10
3.4878
20
-49.8782
11
2.8888
21
-41.3124
0
LINE
8
LINE002
38
0.0
10
1.7450
20
-49.9695
11
1.4549
21
-41.6624
0
LINE
8
LINE002
38
0.0
10
.0000
20
-50.0000
11
.0000
21
-42.0383
0
LINE
8
LINE002
38
0.0
10
-1.7450
20
-49.9695
11
-1.4744
21
-42.2219
0
LINE
8
LINE002
38
0.0
10
-3.4878
20
-49.8782
11
-2.9689
21
-42.4572
0
LINE
8
LINE002
38
0.0
10
-5.2264
20
-49.7261
11
-4.4612
21
-42.4458
0
LINE
8
LINE002
38
0.0
10
-6.9587
20
-49.5134
11
-5.9798
21
-42.5485
0
LINE
8
LINE002
38
0.0
10
-8.6824
20
-49.2404
11
-7.5741
21
-42.9547
0
LINE
8
LINE002
38
0.0
10
-10.3956
20
-48.9074
11
-9.2219
21
-43.3855
0
LINE
8
LINE002
38
0.0
10
-12.0961
20
-48.5148
11
-10.8929
21
-43.6890
0
LINE
8
LINE002
38
0.0
10
-13.7819
20
-48.0631
11
-12.6375
21
-44.0723
0
LINE
8
LINE002
38
0.0
10
-15.4508
20
-47.5528
11
-14.2106
21
-43.7359
0
LINE
8
LINE002
38
0.0
10
-17.1010
20
-46.9846
11
-15.7495
21
-43.2714
0
LINE
8
LINE002
38
0.0
10
-18.7303
20
-46.3592
11
-17.2520
21
-42.7001
0
LINE
8
LINE002
38
0.0
10
-20.3368
20
-45.6773
11
-18.7507
21
-42.1148
0
LINE
8
LINE002
38
0.0
10
-21.9186
20
-44.9397
11
-20.2018
21
-41.4199
0
LINE
8
LINE002
38
0.0
10
-23.4736
20
-44.1474
11
-21.6484
21
-40.7146
0
LINE
8
LINE002
38
0.0
10
-25.0000
20
-43.3013
11
-22.9830
21
-39.8078
0
LINE
8
LINE002
38
0.0
10
-26.4960
20
-42.4024
11
-24.4259
21
-39.0896
0
LINE
8
LINE002
38
0.0
10
-27.9596
20
-41.4519
11
-25.9814
21
-38.5190
0
LINE
8
LINE002
38
0.0
10
-29.3893
20
-40.4509
11
-27.3072
21
-37.5851
0
LINE
8
LINE002
38
0.0
10
-30.7831
20
-39.4005
11
-28.7024
21
-36.7375
0
LINE
8
LINE002
38
0.0
10
-32.1394
20
-38.3022
11
-29.8071
21
-35.5227
0
LINE
8
LINE002
38
0.0
10
-33.4565
20
-37.1572
11
-31.0967
21
-34.5364
0
LINE
8
LINE002
38
0.0
10
-34.7329
20
-35.9670
11
-32.2371
21
-33.3825
0
LINE
8
LINE002
38
0.0
10
-35.9670
20
-34.7329
11
-33.4839
21
-32.3350
0
LINE
8
LINE002
38
0.0
10
-37.1572
20
-33.4565
11
-34.6537
21
-31.2023
0
LINE
8
LINE002
38
0.0
10
-38.3022
20
-32.1394
11
-35.6047
21
-29.8759
0
LINE
8
LINE002
38
0.0
10
-39.4005
20
-30.7831
11
-36.4691
21
-28.4928
0
LINE
8
LINE002
38
0.0
10
-40.4509
20
-29.3893
11
-37.3804
21
-27.1584
0
LINE
8
LINE002
38
0.0
10
-41.4519
20
-27.9596
11
-38.1102
21
-25.7056
0
LINE
8
LINE002
38
0.0
10
-42.4024
20
-26.4960
11
-38.5557
21
-24.0923
0
LINE
8
LINE002
38
0.0
10
-43.3013
20
-25.0000
11
-39.2339
21
-22.6517
0
LINE
8
LINE002
38
0.0
10
-44.1474
20
-23.4736
11
-40.1443
21
-21.3451
0
LINE
8
LINE002
38
0.0
10
-44.9397
20
-21.9186
11
-41.0903
21
-20.0411
0
LINE
8
LINE002
38
0.0
10
-45.6773
20
-20.3368
11
-41.8458
21
-18.6310
0
LINE
8
LINE002
38
0.0
10
-46.3592
20
-18.7303
11
-42.4570
21
-17.1538
0
LINE
8
LINE002
38
0.0
10
-46.9846
20
-17.1010
11
-43.1122
21
-15.6916
0
LINE
8
LINE002
38
0.0
10
-47.5528
20
-15.4508
11
-43.7980
21
-14.2308
0
LINE
8
LINE002
38
0.0
10
-48.0631
20
-13.7819
11
-44.2951
21
-12.7014
0
LINE
8
LINE002
38
0.0
10
-48.5148
20
-12.0961
11
-44.8332
21
-11.1782
0
LINE
8
LINE002
38
0.0
10
-48.9074
20
-10.3956
11
-45.4325
21
-9.6570
0
LINE
8
LINE002
38
0.0
10
-49.2404
20
-8.6824
11
-45.6505
21
-8.0494
0
LINE
8
LINE002
38
0.0
10
-49.5134
20
-6.9587
11
-45.7386
21
-6.4281
0
LINE
8
LINE002
38
0.0
10
-49.7261
20
-5.2264
11
-46.0705
21
-4.8422
0
LINE
8
LINE002
38
0.0
10
-49.8782
20
-3.4878
11
-46.4900
21
-3.2509
0
LINE
8
LINE002
38
0.0
10
-49.9695
20
-1.7450
11
-46.5598
21
-1.6259
0
LINE
8
LINE002
38
0.0
10
-50.0000
20
.0000
11
-46.4133
21
.0000
0
LINE
8
LINE002
38
0.0
10
-49.9695
20
1.7450
11
-46.1461
21
1.6115
0
LINE
8
LINE002
38
0.0
10
-49.8782
20
3.4878
11
-45.8354
21
3.2051
0
LINE
8
LINE002
38
0.0
10
-49.7261
20
5.2264
11
-45.5779
21
4.7904
0
LINE
8
LINE002
38
0.0
10
-49.5134
20
6.9587
11
-45.2695
21
6.3622
0
LINE
8
LINE002
38
0.0
10
-49.2404
20
8.6824
11
-44.9285
21
7.9221
0
LINE
8
LINE002
38
0.0
10
-48.9074
20
10.3956
11
-44.5055
21
9.4599
0
LINE
8
LINE002
38
0.0
10
-48.5148
20
12.0961
11
-43.9801
21
10.9655
0
LINE
8
LINE002
38
0.0
10
-48.0631
20
13.7819
11
-43.4912
21
12.4709
0
LINE
8
LINE002
38
0.0
10
-47.5528
20
15.4508
11
-43.0798
21
13.9975
0
LINE
8
LINE002
38
0.0
10
-46.9846
20
17.1010
11
-42.7359
21
15.5546
0
LINE
8
LINE002
38
0.0
10
-46.3592
20
18.7303
11
-42.5581
21
17.1946
0
LINE
8
LINE002
38
0.0
10
-45.6773
20
20.3368
11
-42.3025
21
18.8343
0
LINE
8
LINE002
38
0.0
10
-44.9397
20
21.9186
11
-41.6293
21
20.3040
0
LINE
8
LINE002
38
0.0
10
-44.1474
20
23.4736
11
-40.6475
21
21.6127
0
LINE
8
LINE002
38
0.0
10
-43.3013
20
25.0000
11
-39.6349
21
22.8832
0
LINE
8
LINE002
38
0.0
10
-42.4024
20
26.4960
11
-38.6281
21
24.1375
0
LINE
8
LINE002
38
0.0
10
-41.4519
20
27.9596
11
-37.6314
21
25.3827
0
LINE
8
LINE002
38
0.0
10
-40.4509
20
29.3893
11
-36.5865
21
26.5816
0
LINE
8
LINE002
38
0.0
10
-39.4005
20
30.7831
11
-35.5695
21
27.7899
0
LINE
8
LINE002
38
0.0
10
-38.3022
20
32.1394
11
-34.5389
21
28.9816
0
LINE
8
LINE002
38
0.0
10
-37.1572
20
33.4565
11
-33.4938
21
30.1580
0
LINE
8
LINE002
38
0.0
10
-35.9670
20
34.7329
11
-32.4116
21
31.2995
0
LINE
8
LINE002
38
0.0
10
-34.7329
20
35.9670
11
-31.3026
21
32.4148
0
LINE
8
LINE002
38
0.0
10
-33.4565
20
37.1572
11
-30.1380
21
33.4716
0
LINE
8
LINE002
38
0.0
10
-32.1394
20
38.3022
11
-28.9252
21
34.4717
0
LINE
8
LINE002
38
0.0
10
-30.7831
20
39.4005
11
-27.6881
21
35.4392
0
LINE
8
LINE002
38
0.0
10
-29.3893
20
40.4509
11
-26.4637
21
36.4242
0
LINE
8
LINE002
38
0.0
10
-27.9596
20
41.4519
11
-25.2361
21
37.4141
0
LINE
8
LINE002
38
0.0
10
-26.4960
20
42.4024
11
-24.0445
21
38.4793
0
LINE
8
LINE002
38
0.0
10
-25.0000
20
43.3013
11
-22.8288
21
39.5407
0
LINE
8
LINE002
38
0.0
10
-23.4736
20
44.1474
11
-21.5861
21
40.5976
0
LINE
8
LINE002
38
0.0
10
-21.9186
20
44.9397
11
-20.3232
21
41.6688
0
LINE
8
LINE002
38
0.0
10
-20.3368
20
45.6773
11
-19.0216
21
42.7232
0
LINE
8
LINE002
38
0.0
10
-18.7303
20
46.3592
11
-17.6430
21
43.6680
0
LINE
8
LINE002
38
0.0
10
-17.1010
20
46.9846
11
-16.1801
21
44.4543
0
LINE
8
LINE002
38
0.0
10
-15.4508
20
47.5528
11
-14.6845
21
45.1943
0
LINE
8
LINE002
38
0.0
10
-13.7819
20
48.0631
11
-13.1788
21
45.9598
0
LINE
8
LINE002
38
0.0
10
-12.0961
20
48.5148
11
-11.5489
21
46.3202
0
LINE
8
LINE002
38
0.0
10
-10.3956
20
48.9074
11
-9.8702
21
46.4356
0
LINE
8
LINE002
38
0.0
10
-8.6824
20
49.2404
11
-8.1962
21
46.4830
0
LINE
8
LINE002
38
0.0
10
-6.9587
20
49.5134
11
-6.5345
21
46.4953
0
LINE
8
LINE002
38
0.0
10
-5.2264
20
49.7261
11
-4.8794
21
46.4245
0
LINE
8
LINE002
38
0.0
10
-3.4878
20
49.8782
11
-3.2408
21
46.3452
0
LINE
8
LINE002
38
0.0
10
-1.7450
20
49.9695
11
-1.6144
21
46.2310
0
LINE
8
LINE002
38
0.0
10
.0000
20
50.0000
11
.0000
21
46.2543
0
POLYLINE
8
PLINE001
38
0.0
66
1
0
VERTEX
8
PLINE001
38
0.0
10
.0000
20
50.0000
0
VERTEX
8
PLINE001
38
0.0
10
1.7450
20
49.9695
0
VERTEX
8
PLINE001
38
0.0
10
3.4878
20
49.8782
0
VERTEX
8
PLINE001
38
0.0
10
5.2264
20
49.7261
0
VERTEX
8
PLINE001
38
0.0
10
6.9587
20
49.5134
0
VERTEX
8
PLINE001
38
0.0
10
8.6824
20
49.2404
0
VERTEX
8
PLINE001
38
0.0
10
10.3956
20
48.9074
0
VERTEX
8
PLINE001
38
0.0
10
12.0961
20
48.5148
0
VERTEX
8
PLINE001
38
0.0
10
13.7819
20
48.0631
0
VERTEX
8
PLINE001
38
0.0
10
15.4508
20
47.5528
0
VERTEX
8
PLINE001
38
0.0
10
17.1010
20
46.9846
0
VERTEX
8
PLINE001
38
0.0
10
18.7303
20
46.3592
0
VERTEX
8
PLINE001
38
0.0
10
20.3368
20
45.6773
0
VERTEX
8
PLINE001
38
0.0
10
21.9186
20
44.9397
0
VERTEX
8
PLINE001
38
0.0
10
23.4736
20
44.1474
0
VERTEX
8
PLINE001
38
0.0
10
25.0000
20
43.3013
0
VERTEX
8
PLINE001
38
0.0
10
26.4960
20
42.4024
0
VERTEX
8
PLINE001
38
0.0
10
27.9596
20
41.4519
0
VERTEX
8
PLINE001
38
0.0
10
29.3893
20
40.4509
0
VERTEX
8
PLINE001
38
0.0
10
30.7831
20
39.4005
0
VERTEX
8
PLINE001
38
0.0
10
32.1394
20
38.3022
0
VERTEX
8
PLINE001
38
0.0
10
33.4565
20
37.1572
0
VERTEX
8
PLINE001
38
0.0
10
34.7329
20
35.9670
0
VERTEX
8
PLINE001
38
0.0
10
35.9670
20
34.7329
0
VERTEX
8
PLINE001
38
0.0
10
37.1572
20
33.4565
0
VERTEX
8
PLINE001
38
0.0
10
38.3022
20
32.1394
0
VERTEX
8
PLINE001
38
0.0
10
39.4005
20
30.7831
0
VERTEX
8
PLINE001
38
0.0
10
40.4509
20
29.3893
0
VERTEX
8
PLINE001
38
0.0
10
41.4519
20
27.9596
0
VERTEX
8
PLINE001
38
0.0
10
42.4024
20
26.4960
0
VERTEX
8
PLINE001
38
0.0
10
43.3013
20
25.0000
0
VERTEX
8
PLINE001
38
0.0
10
44.1474
20
23.4736
0
VERTEX
8
PLINE001
38
0.0
10
44.9397
20
21.9186
0
VERTEX
8
PLINE001
38
0.0
10
45.6773
20
20.3368
0
VERTEX
8
PLINE001
38
0.0
10
46.3592
20
18.7303
0
VERTEX
8
PLINE001
38
0.0
10
46.9846
20
17.1010
0
VERTEX
8
PLINE001
38
0.0
10
47.5528
20
15.4508
0
VERTEX
8
PLINE001
38
0.0
10
48.0631
20
13.7819
0
VERTEX
8
PLINE001
38
0.0
10
48.5148
20
12.0961
0
VERTEX
8
PLINE001
38
0.0
10
48.9074
20
10.3956
0
VERTEX
8
PLINE001
38
0.0
10
49.2404
20
8.6824
0
VERTEX
8
PLINE001
38
0.0
10
49.5134
20
6.9587
0
VERTEX
8
PLINE001
38
0.0
10
49.7261
20
5.2264
0
VERTEX
8
PLINE001
38
0.0
10
49.8782
20
3.4878
0
VERTEX
8
PLINE001
38
0.0
10
49.9695
20
1.7450
0
VERTEX
8
PLINE001
38
0.0
10
50.0000
20
.0000
0
VERTEX
8
PLINE001
38
0.0
10
49.9695
20
-1.7450
0
VERTEX
8
PLINE001
38
0.0
10
49.8782
20
-3.4878
0
VERTEX
8
PLINE001
38
0.0
10
49.7261
20
-5.2264
0
VERTEX
8
PLINE001
38
0.0
10
49.5134
20
-6.9587
0
VERTEX
8
PLINE001
38
0.0
10
49.2404
20
-8.6824
0
VERTEX
8
PLINE001
38
0.0
10
48.9074
20
-10.3956
0
VERTEX
8
PLINE001
38
0.0
10
48.5148
20
-12.0961
0
VERTEX
8
PLINE001
38
0.0
10
48.0631
20
-13.7819
0
VERTEX
8
PLINE001
38
0.0
10
47.5528
20
-15.4508
0
VERTEX
8
PLINE001
38
0.0
10
46.9846
20
-17.1010
0
VERTEX
8
PLINE001
38
0.0
10
46.3592
20
-18.7303
0
VERTEX
8
PLINE001
38
0.0
10
45.6773
20
-20.3368
0
VERTEX
8
PLINE001
38
0.0
10
44.9397
20
-21.9186
0
VERTEX
8
PLINE001
38
0.0
10
44.1474
20
-23.4736
0
VERTEX
8
PLINE001
38
0.0
10
43.3013
20
-25.0000
0
VERTEX
8
PLINE001
38
0.0
10
42.4024
20
-26.4960
0
VERTEX
8
PLINE001
38
0.0
10
41.4519
20
-27.9596
0
VERTEX
8
PLINE001
38
0.0
10
40.4509
20
-29.3893
0
VERTEX
8
PLINE001
38
0.0
10
39.4005
20
-30.7831
0
VERTEX
8
PLINE001
38
0.0
10
38.3022
20
-32.1394
0
VERTEX
8
PLINE001
38
0.0
10
37.1572
20
-33.4565
0
VERTEX
8
PLINE001
38
0.0
10
35.9670
20
-34.7329
0
VERTEX
8
PLINE001
38
0.0
10
34.7329
20
-35.9670
0
VERTEX
8
PLINE001
38
0.0
10
33.4565
20
-37.1572
0
VERTEX
8
PLINE001
38
0.0
10
32.1394
20
-38.3022
0
VERTEX
8
PLINE001
38
0.0
10
30.7831
20
-39.4005
0
VERTEX
8
PLINE001
38
0.0
10
29.3893
20
-40.4509
0
VERTEX
8
PLINE001
38
0.0
10
27.9596
20
-41.4519
0
VERTEX
8
PLINE001
38
0.0
10
26.4960
20
-42.4024
0
VERTEX
8
PLINE001
38
0.0
10
25.0000
20
-43.3013
0
VERTEX
8
PLINE001
38
0.0
10
23.4736
20
-44.1474
0
VERTEX
8
PLINE001
38
0.0
10
21.9186
20
-44.9397
0
VERTEX
8
PLINE001
38
0.0
10
20.3368
20
-45.6773
0
VERTEX
8
PLINE001
38
0.0
10
18.7303
20
-46.3592
0
VERTEX
8
PLINE001
38
0.0
10
17.1010
20
-46.9846
0
VERTEX
8
PLINE001
38
0.0
10
15.4508
20
-47.5528
0
VERTEX
8
PLINE001
38
0.0
10
13.7819
20
-48.0631
0
VERTEX
8
PLINE001
38
0.0
10
12.0961
20
-48.5148
0
VERTEX
8
PLINE001
38
0.0
10
10.3956
20
-48.9074
0
VERTEX
8
PLINE001
38
0.0
10
8.6824
20
-49.2404
0
VERTEX
8
PLINE001
38
0.0
10
6.9587
20
-49.5134
0
VERTEX
8
PLINE001
38
0.0
10
5.2264
20
-49.7261
0
VERTEX
8
PLINE001
38
0.0
10
3.4878
20
-49.8782
0
VERTEX
8
PLINE001
38
0.0
10
1.7450
20
-49.9695
0
VERTEX
8
PLINE001
38
0.0
10
.0000
20
-50.0000
0
VERTEX
8
PLINE001
38
0.0
10
-1.7450
20
-49.9695
0
VERTEX
8
PLINE001
38
0.0
10
-3.4878
20
-49.8782
0
VERTEX
8
PLINE001
38
0.0
10
-5.2264
20
-49.7261
0
VERTEX
8
PLINE001
38
0.0
10
-6.9587
20
-49.5134
0
VERTEX
8
PLINE001
38
0.0
10
-8.6824
20
-49.2404
0
VERTEX
8
PLINE001
38
0.0
10
-10.3956
20
-48.9074
0
VERTEX
8
PLINE001
38
0.0
10
-12.0961
20
-48.5148
0
VERTEX
8
PLINE001
38
0.0
10
-13.7819
20
-48.0631
0
VERTEX
8
PLINE001
38
0.0
10
-15.4508
20
-47.5528
0
VERTEX
8
PLINE001
38
0.0
10
-17.1010
20
-46.9846
0
VERTEX
8
PLINE001
38
0.0
10
-18.7303
20
-46.3592
0
VERTEX
8
PLINE001
38
0.0
10
-20.3368
20
-45.6773
0
VERTEX
8
PLINE001
38
0.0
10
-21.9186
20
-44.9397
0
VERTEX
8
PLINE001
38
0.0
10
-23.4736
20
-44.1474
0
VERTEX
8
PLINE001
38
0.0
10
-25.0000
20
-43.3013
0
VERTEX
8
PLINE001
38
0.0
10
-26.4960
20
-42.4024
0
VERTEX
8
PLINE001
38
0.0
10
-27.9596
20
-41.4519
0
VERTEX
8
PLINE001
38
0.0
10
-29.3893
20
-40.4509
0
VERTEX
8
PLINE001
38
0.0
10
-30.7831
20
-39.4005
0
VERTEX
8
PLINE001
38
0.0
10
-32.1394
20
-38.3022
0
VERTEX
8
PLINE001
38
0.0
10
-33.4565
20
-37.1572
0
VERTEX
8
PLINE001
38
0.0
10
-34.7329
20
-35.9670
0
VERTEX
8
PLINE001
38
0.0
10
-35.9670
20
-34.7329
0
VERTEX
8
PLINE001
38
0.0
10
-37.1572
20
-33.4565
0
VERTEX
8
PLINE001
38
0.0
10
-38.3022
20
-32.1394
0
VERTEX
8
PLINE001
38
0.0
10
-39.4005
20
-30.7831
0
VERTEX
8
PLINE001
38
0.0
10
-40.4509
20
-29.3893
0
VERTEX
8
PLINE001
38
0.0
10
-41.4519
20
-27.9596
0
VERTEX
8
PLINE001
38
0.0
10
-42.4024
20
-26.4960
0
VERTEX
8
PLINE001
38
0.0
10
-43.3013
20
-25.0000
0
VERTEX
8
PLINE001
38
0.0
10
-44.1474
20
-23.4736
0
VERTEX
8
PLINE001
38
0.0
10
-44.9397
20
-21.9186
0
VERTEX
8
PLINE001
38
0.0
10
-45.6773
20
-20.3368
0
VERTEX
8
PLINE001
38
0.0
10
-46.3592
20
-18.7303
0
VERTEX
8
PLINE001
38
0.0
10
-46.9846
20
-17.1010
0
VERTEX
8
PLINE001
38
0.0
10
-47.5528
20
-15.4508
0
VERTEX
8
PLINE001
38
0.0
10
-48.0631
20
-13.7819
0
VERTEX
8
PLINE001
38
0.0
10
-48.5148
20
-12.0961
0
VERTEX
8
PLINE001
38
0.0
10
-48.9074
20
-10.3956
0
VERTEX
8
PLINE001
38
0.0
10
-49.2404
20
-8.6824
0
VERTEX
8
PLINE001
38
0.0
10
-49.5134
20
-6.9587
0
VERTEX
8
PLINE001
38
0.0
10
-49.7261
20
-5.2264
0
VERTEX
8
PLINE001
38
0.0
10
-49.8782
20
-3.4878
0
VERTEX
8
PLINE001
38
0.0
10
-49.9695
20
-1.7450
0
VERTEX
8
PLINE001
38
0.0
10
-50.0000
20
.0000
0
VERTEX
8
PLINE001
38
0.0
10
-49.9695
20
1.7450
0
VERTEX
8
PLINE001
38
0.0
10
-49.8782
20
3.4878
0
VERTEX
8
PLINE001
38
0.0
10
-49.7261
20
5.2264
0
VERTEX
8
PLINE001
38
0.0
10
-49.5134
20
6.9587
0
VERTEX
8
PLINE001
38
0.0
10
-49.2404
20
8.6824
0
VERTEX
8
PLINE001
38
0.0
10
-48.9074
20
10.3956
0
VERTEX
8
PLINE001
38
0.0
10
-48.5148
20
12.0961
0
VERTEX
8
PLINE001
38
0.0
10
-48.0631
20
13.7819
0
VERTEX
8
PLINE001
38
0.0
10
-47.5528
20
15.4508
0
VERTEX
8
PLINE001
38
0.0
10
-46.9846
20
17.1010
0
VERTEX
8
PLINE001
38
0.0
10
-46.3592
20
18.7303
0
VERTEX
8
PLINE001
38
0.0
10
-45.6773
20
20.3368
0
VERTEX
8
PLINE001
38
0.0
10
-44.9397
20
21.9186
0
VERTEX
8
PLINE001
38
0.0
10
-44.1474
20
23.4736
0
VERTEX
8
PLINE001
38
0.0
10
-43.3013
20
25.0000
0
VERTEX
8
PLINE001
38
0.0
10
-42.4024
20
26.4960
0
VERTEX
8
PLINE001
38
0.0
10
-41.4519
20
27.9596
0
VERTEX
8
PLINE001
38
0.0
10
-40.4509
20
29.3893
0
VERTEX
8
PLINE001
38
0.0
10
-39.4005
20
30.7831
0
VERTEX
8
PLINE001
38
0.0
10
-38.3022
20
32.1394
0
VERTEX
8
PLINE001
38
0.0
10
-37.1572
20
33.4565
0
VERTEX
8
PLINE001
38
0.0
10
-35.9670
20
34.7329
0
VERTEX
8
PLINE001
38
0.0
10
-34.7329
20
35.9670
0
VERTEX
8
PLINE001
38
0.0
10
-33.4565
20
37.1572
0
VERTEX
8
PLINE001
38
0.0
10
-32.1394
20
38.3022
0
VERTEX
8
PLINE001
38
0.0
10
-30.7831
20
39.4005
0
VERTEX
8
PLINE001
38
0.0
10
-29.3893
20
40.4509
0
VERTEX
8
PLINE001
38
0.0
10
-27.9596
20
41.4519
0
VERTEX
8
PLINE001
38
0.0
10
-26.4960
20
42.4024
0
VERTEX
8
PLINE001
38
0.0
10
-25.0000
20
43.3013
0
VERTEX
8
PLINE001
38
0.0
10
-23.4736
20
44.1474
0
VERTEX
8
PLINE001
38
0.0
10
-21.9186
20
44.9397
0
VERTEX
8
PLINE001
38
0.0
10
-20.3368
20
45.6773
0
VERTEX
8
PLINE001
38
0.0
10
-18.7303
20
46.3592
0
VERTEX
8
PLINE001
38
0.0
10
-17.1010
20
46.9846
0
VERTEX
8
PLINE001
38
0.0
10
-15.4508
20
47.5528
0
VERTEX
8
PLINE001
38
0.0
10
-13.7819
20
48.0631
0
VERTEX
8
PLINE001
38
0.0
10
-12.0961
20
48.5148
0
VERTEX
8
PLINE001
38
0.0
10
-10.3956
20
48.9074
0
VERTEX
8
PLINE001
38
0.0
10
-8.6824
20
49.2404
0
VERTEX
8
PLINE001
38
0.0
10
-6.9587
20
49.5134
0
VERTEX
8
PLINE001
38
0.0
10
-5.2264
20
49.7261
0
VERTEX
8
PLINE001
38
0.0
10
-3.4878
20
49.8782
0
VERTEX
8
PLINE001
38
0.0
10
-1.7450
20
49.9695
0
VERTEX
8
PLINE001
38
0.0
10
.0000
20
50.0000
0
SEQEND
8
PLINE001
0
TEXT
8
TEXT001
38
0.0
10
-80.0000
20
118.5000
40
5.0000
1
Buetschen
0
TEXT
8
TEXT001
38
0.0
10
-80.0000
20
111.0000
40
3.0000
1
Hoehenmodell: ../../chdtedrdh/ch25_l2_dted.dtm
0
TEXT
8
TEXT001
38
0.0
10
-80.0000
20
106.5000
40
3.0000
1
              (472000.00, 68000.00 / 872000.00,308000.00)
0
TEXT
8
TEXT001
38
0.0
10
-80.0000
20
100.5000
40
3.0000
1
Y= 619415.00 m   X= 251345.00 m   H=  504.24 m
0
TEXT
8
TEXT001
38
0.0
10
-80.0000
20
96.0000
40
3.0000
1
                        Modellhoehe=  502.44 m
0
TEXT
8
TEXT001
38
0.0
10
-80.0000
20
-123.5000
40
3.0000
1
Berechnungsdatum: 10.10.2016
0
TEXT
8
TEXT001
38
0.0
10
-80.0000
20
-119.0000
40
3.0000
1
Elevationskreise:  20.0, 40.0, 60.0, 80.0, Gon
0
TEXT
8
TEXT001
38
0.0
10
-80.0000
20
-114.5000
40
3.0000
1
Azimutale Aufloesung:  2.00 Grad
0
TEXT
8
TEXT001
38
0.0
10
-80.0000
20
-110.0000
40
3.0000
1
Berechneter Sektor:    .00..360.00 Grad
0
ENDSEC
0
EOF
